<svg width="124" height="40" viewBox="0 0 124 40" fill="none" xmlns="http://www.w3.org/2000/svg">
<path d="M0 2C0 0.895431 0.895431 0 2 0H119.091C120.884 0 121.771 2.17757 120.488 3.4306L104.993 18.5694C104.189 19.354 104.189 20.646 104.993 21.4306L120.488 36.5694C121.771 37.8224 120.884 40 119.091 40H2C0.895429 40 0 39.1046 0 38V2Z" fill="#F20202"/>
<path d="M23.352 26V15.76L24.472 16.88H21.112V14.8H25.944V26H23.352ZM32.6896 26.192C31.7723 26.192 30.951 25.968 30.2256 25.52C29.5003 25.0613 28.9296 24.4 28.5136 23.536C28.0976 22.672 27.8896 21.6267 27.8896 20.4C27.8896 19.1733 28.0976 18.128 28.5136 17.264C28.9296 16.4 29.5003 15.744 30.2256 15.296C30.951 14.8373 31.7723 14.608 32.6896 14.608C33.6176 14.608 34.439 14.8373 35.1536 15.296C35.879 15.744 36.4496 16.4 36.8656 17.264C37.2816 18.128 37.4896 19.1733 37.4896 20.4C37.4896 21.6267 37.2816 22.672 36.8656 23.536C36.4496 24.4 35.879 25.0613 35.1536 25.52C34.439 25.968 33.6176 26.192 32.6896 26.192ZM32.6896 24C33.127 24 33.5056 23.8773 33.8256 23.632C34.1563 23.3867 34.4123 22.9973 34.5936 22.464C34.7856 21.9307 34.8816 21.2427 34.8816 20.4C34.8816 19.5573 34.7856 18.8693 34.5936 18.336C34.4123 17.8027 34.1563 17.4133 33.8256 17.168C33.5056 16.9227 33.127 16.8 32.6896 16.8C32.263 16.8 31.8843 16.9227 31.5536 17.168C31.2336 17.4133 30.9776 17.8027 30.7856 18.336C30.6043 18.8693 30.5136 19.5573 30.5136 20.4C30.5136 21.2427 30.6043 21.9307 30.7856 22.464C30.9776 22.9973 31.2336 23.3867 31.5536 23.632C31.8843 23.8773 32.263 24 32.6896 24ZM40.365 26L48.013 14.8H49.917L42.269 26H40.365ZM41.341 20.848C40.797 20.848 40.317 20.7253 39.901 20.48C39.485 20.224 39.1543 19.8667 38.909 19.408C38.6743 18.9387 38.557 18.3893 38.557 17.76C38.557 17.1307 38.6743 16.5867 38.909 16.128C39.1543 15.6693 39.485 15.312 39.901 15.056C40.317 14.8 40.797 14.672 41.341 14.672C41.885 14.672 42.365 14.8 42.781 15.056C43.197 15.312 43.5223 15.6693 43.757 16.128C43.9917 16.5867 44.109 17.1307 44.109 17.76C44.109 18.3893 43.9917 18.9387 43.757 19.408C43.5223 19.8667 43.197 20.224 42.781 20.48C42.365 20.7253 41.885 20.848 41.341 20.848ZM41.341 19.536C41.693 19.536 41.9757 19.392 42.189 19.104C42.4023 18.8053 42.509 18.3573 42.509 17.76C42.509 17.1627 42.4023 16.72 42.189 16.432C41.9757 16.1333 41.693 15.984 41.341 15.984C40.9997 15.984 40.717 16.1333 40.493 16.432C40.2797 16.72 40.173 17.1627 40.173 17.76C40.173 18.3467 40.2797 18.7893 40.493 19.088C40.717 19.3867 40.9997 19.536 41.341 19.536ZM48.941 26.128C48.4077 26.128 47.9277 26.0053 47.501 25.76C47.085 25.504 46.7597 25.1467 46.525 24.688C46.2903 24.2187 46.173 23.6693 46.173 23.04C46.173 22.4107 46.2903 21.8667 46.525 21.408C46.7597 20.9493 47.085 20.592 47.501 20.336C47.9277 20.08 48.4077 19.952 48.941 19.952C49.4957 19.952 49.981 20.08 50.397 20.336C50.813 20.592 51.1383 20.9493 51.373 21.408C51.6077 21.8667 51.725 22.4107 51.725 23.04C51.725 23.6693 51.6077 24.2187 51.373 24.688C51.1383 25.1467 50.813 25.504 50.397 25.76C49.981 26.0053 49.4957 26.128 48.941 26.128ZM48.941 24.816C49.293 24.816 49.5757 24.672 49.789 24.384C50.0023 24.0853 50.109 23.6373 50.109 23.04C50.109 22.4533 50.0023 22.0107 49.789 21.712C49.5757 21.4133 49.293 21.264 48.941 21.264C48.5997 21.264 48.317 21.4133 48.093 21.712C47.8797 22 47.773 22.4427 47.773 23.04C47.773 23.6373 47.8797 24.0853 48.093 24.384C48.317 24.672 48.5997 24.816 48.941 24.816ZM63.4555 26.192C62.5702 26.192 61.7488 26.048 60.9915 25.76C60.2448 25.472 59.5942 25.0667 59.0395 24.544C58.4955 24.0213 58.0688 23.408 57.7595 22.704C57.4608 22 57.3115 21.232 57.3115 20.4C57.3115 19.568 57.4608 18.8 57.7595 18.096C58.0688 17.392 58.5008 16.7787 59.0555 16.256C59.6102 15.7333 60.2608 15.328 61.0075 15.04C61.7542 14.752 62.5648 14.608 63.4395 14.608C64.3248 14.608 65.1355 14.752 65.8715 15.04C66.6182 15.328 67.2635 15.7333 67.8075 16.256C68.3622 16.7787 68.7942 17.392 69.1035 18.096C69.4128 18.7893 69.5675 19.5573 69.5675 20.4C69.5675 21.232 69.4128 22.0053 69.1035 22.72C68.7942 23.424 68.3622 24.0373 67.8075 24.56C67.2635 25.072 66.6182 25.472 65.8715 25.76C65.1355 26.048 64.3302 26.192 63.4555 26.192ZM63.4395 23.984C63.9408 23.984 64.3995 23.8987 64.8155 23.728C65.2422 23.5573 65.6155 23.312 65.9355 22.992C66.2555 22.672 66.5008 22.2933 66.6715 21.856C66.8528 21.4187 66.9435 20.9333 66.9435 20.4C66.9435 19.8667 66.8528 19.3813 66.6715 18.944C66.5008 18.5067 66.2555 18.128 65.9355 17.808C65.6262 17.488 65.2582 17.2427 64.8315 17.072C64.4048 16.9013 63.9408 16.816 63.4395 16.816C62.9382 16.816 62.4742 16.9013 62.0475 17.072C61.6315 17.2427 61.2635 17.488 60.9435 17.808C60.6235 18.128 60.3728 18.5067 60.1915 18.944C60.0208 19.3813 59.9355 19.8667 59.9355 20.4C59.9355 20.9227 60.0208 21.408 60.1915 21.856C60.3728 22.2933 60.6182 22.672 60.9275 22.992C61.2475 23.312 61.6208 23.5573 62.0475 23.728C62.4742 23.8987 62.9382 23.984 63.4395 23.984ZM71.6435 26V17.2C71.6435 16.2293 71.9315 15.456 72.5075 14.88C73.0835 14.2933 73.9048 14 74.9715 14C75.3342 14 75.6808 14.0373 76.0115 14.112C76.3528 14.1867 76.6408 14.304 76.8755 14.464L76.2195 16.272C76.0808 16.176 75.9262 16.1013 75.7555 16.048C75.5848 15.9947 75.4035 15.968 75.2115 15.968C74.8488 15.968 74.5662 16.0747 74.3635 16.288C74.1715 16.4907 74.0755 16.8 74.0755 17.216V18.016L74.1395 19.088V26H71.6435ZM70.3155 19.504V17.584H76.2835V19.504H70.3155ZM77.956 26V17.2C77.956 16.2293 78.244 15.456 78.82 14.88C79.396 14.2933 80.2173 14 81.284 14C81.6467 14 81.9933 14.0373 82.324 14.112C82.6653 14.1867 82.9533 14.304 83.188 14.464L82.532 16.272C82.3933 16.176 82.2387 16.1013 82.068 16.048C81.8973 15.9947 81.716 15.968 81.524 15.968C81.1613 15.968 80.8787 16.0747 80.676 16.288C80.484 16.4907 80.388 16.8 80.388 17.216V18.016L80.452 19.088V26H77.956ZM76.628 19.504V17.584H82.596V19.504H76.628Z" fill="white"/>
</svg>
