<svg width="124" height="40" viewBox="0 0 124 40" fill="none" xmlns="http://www.w3.org/2000/svg">
<path d="M0 2C0 0.895431 0.895431 0 2 0H119.091C120.884 0 121.771 2.17757 120.488 3.4306L104.993 18.5694C104.189 19.354 104.189 20.646 104.993 21.4306L120.488 36.5694C121.771 37.8224 120.884 40 119.091 40H2C0.895429 40 0 39.1046 0 38V2Z" fill="#F20202"/>
<path d="M21.528 26V24.32L25.848 20.24C26.1893 19.9307 26.44 19.6533 26.6 19.408C26.76 19.1627 26.8667 18.9387 26.92 18.736C26.984 18.5333 27.016 18.3467 27.016 18.176C27.016 17.728 26.8613 17.3867 26.552 17.152C26.2533 16.9067 25.8107 16.784 25.224 16.784C24.7547 16.784 24.3173 16.8747 23.912 17.056C23.5173 17.2373 23.1813 17.52 22.904 17.904L21.016 16.688C21.4427 16.048 22.04 15.5413 22.808 15.168C23.576 14.7947 24.4613 14.608 25.464 14.608C26.296 14.608 27.0213 14.7467 27.64 15.024C28.2693 15.2907 28.7547 15.6693 29.096 16.16C29.448 16.6507 29.624 17.2373 29.624 17.92C29.624 18.2827 29.576 18.6453 29.48 19.008C29.3947 19.36 29.2133 19.7333 28.936 20.128C28.6693 20.5227 28.2747 20.9653 27.752 21.456L24.168 24.832L23.672 23.888H29.992V26H21.528ZM35.8615 26.192C34.9442 26.192 34.1228 25.968 33.3975 25.52C32.6722 25.0613 32.1015 24.4 31.6855 23.536C31.2695 22.672 31.0615 21.6267 31.0615 20.4C31.0615 19.1733 31.2695 18.128 31.6855 17.264C32.1015 16.4 32.6722 15.744 33.3975 15.296C34.1228 14.8373 34.9442 14.608 35.8615 14.608C36.7895 14.608 37.6108 14.8373 38.3255 15.296C39.0508 15.744 39.6215 16.4 40.0375 17.264C40.4535 18.128 40.6615 19.1733 40.6615 20.4C40.6615 21.6267 40.4535 22.672 40.0375 23.536C39.6215 24.4 39.0508 25.0613 38.3255 25.52C37.6108 25.968 36.7895 26.192 35.8615 26.192ZM35.8615 24C36.2988 24 36.6775 23.8773 36.9975 23.632C37.3282 23.3867 37.5842 22.9973 37.7655 22.464C37.9575 21.9307 38.0535 21.2427 38.0535 20.4C38.0535 19.5573 37.9575 18.8693 37.7655 18.336C37.5842 17.8027 37.3282 17.4133 36.9975 17.168C36.6775 16.9227 36.2988 16.8 35.8615 16.8C35.4348 16.8 35.0562 16.9227 34.7255 17.168C34.4055 17.4133 34.1495 17.8027 33.9575 18.336C33.7762 18.8693 33.6855 19.5573 33.6855 20.4C33.6855 21.2427 33.7762 21.9307 33.9575 22.464C34.1495 22.9973 34.4055 23.3867 34.7255 23.632C35.0562 23.8773 35.4348 24 35.8615 24ZM43.5369 26L51.1849 14.8H53.0889L45.4409 26H43.5369ZM44.5129 20.848C43.9689 20.848 43.4889 20.7253 43.0729 20.48C42.6569 20.224 42.3262 19.8667 42.0809 19.408C41.8462 18.9387 41.7289 18.3893 41.7289 17.76C41.7289 17.1307 41.8462 16.5867 42.0809 16.128C42.3262 15.6693 42.6569 15.312 43.0729 15.056C43.4889 14.8 43.9689 14.672 44.5129 14.672C45.0569 14.672 45.5369 14.8 45.9529 15.056C46.3689 15.312 46.6942 15.6693 46.9289 16.128C47.1635 16.5867 47.2809 17.1307 47.2809 17.76C47.2809 18.3893 47.1635 18.9387 46.9289 19.408C46.6942 19.8667 46.3689 20.224 45.9529 20.48C45.5369 20.7253 45.0569 20.848 44.5129 20.848ZM44.5129 19.536C44.8649 19.536 45.1475 19.392 45.3609 19.104C45.5742 18.8053 45.6809 18.3573 45.6809 17.76C45.6809 17.1627 45.5742 16.72 45.3609 16.432C45.1475 16.1333 44.8649 15.984 44.5129 15.984C44.1715 15.984 43.8889 16.1333 43.6649 16.432C43.4515 16.72 43.3449 17.1627 43.3449 17.76C43.3449 18.3467 43.4515 18.7893 43.6649 19.088C43.8889 19.3867 44.1715 19.536 44.5129 19.536ZM52.1129 26.128C51.5795 26.128 51.0995 26.0053 50.6729 25.76C50.2569 25.504 49.9315 25.1467 49.6969 24.688C49.4622 24.2187 49.3449 23.6693 49.3449 23.04C49.3449 22.4107 49.4622 21.8667 49.6969 21.408C49.9315 20.9493 50.2569 20.592 50.6729 20.336C51.0995 20.08 51.5795 19.952 52.1129 19.952C52.6675 19.952 53.1529 20.08 53.5689 20.336C53.9849 20.592 54.3102 20.9493 54.5449 21.408C54.7795 21.8667 54.8969 22.4107 54.8969 23.04C54.8969 23.6693 54.7795 24.2187 54.5449 24.688C54.3102 25.1467 53.9849 25.504 53.5689 25.76C53.1529 26.0053 52.6675 26.128 52.1129 26.128ZM52.1129 24.816C52.4649 24.816 52.7475 24.672 52.9609 24.384C53.1742 24.0853 53.2809 23.6373 53.2809 23.04C53.2809 22.4533 53.1742 22.0107 52.9609 21.712C52.7475 21.4133 52.4649 21.264 52.1129 21.264C51.7715 21.264 51.4889 21.4133 51.2649 21.712C51.0515 22 50.9449 22.4427 50.9449 23.04C50.9449 23.6373 51.0515 24.0853 51.2649 24.384C51.4889 24.672 51.7715 24.816 52.1129 24.816ZM66.6274 26.192C65.742 26.192 64.9207 26.048 64.1634 25.76C63.4167 25.472 62.766 25.0667 62.2114 24.544C61.6674 24.0213 61.2407 23.408 60.9314 22.704C60.6327 22 60.4834 21.232 60.4834 20.4C60.4834 19.568 60.6327 18.8 60.9314 18.096C61.2407 17.392 61.6727 16.7787 62.2274 16.256C62.782 15.7333 63.4327 15.328 64.1794 15.04C64.926 14.752 65.7367 14.608 66.6114 14.608C67.4967 14.608 68.3074 14.752 69.0434 15.04C69.79 15.328 70.4354 15.7333 70.9794 16.256C71.534 16.7787 71.966 17.392 72.2754 18.096C72.5847 18.7893 72.7394 19.5573 72.7394 20.4C72.7394 21.232 72.5847 22.0053 72.2754 22.72C71.966 23.424 71.534 24.0373 70.9794 24.56C70.4354 25.072 69.79 25.472 69.0434 25.76C68.3074 26.048 67.502 26.192 66.6274 26.192ZM66.6114 23.984C67.1127 23.984 67.5714 23.8987 67.9874 23.728C68.414 23.5573 68.7874 23.312 69.1074 22.992C69.4274 22.672 69.6727 22.2933 69.8434 21.856C70.0247 21.4187 70.1154 20.9333 70.1154 20.4C70.1154 19.8667 70.0247 19.3813 69.8434 18.944C69.6727 18.5067 69.4274 18.128 69.1074 17.808C68.798 17.488 68.43 17.2427 68.0034 17.072C67.5767 16.9013 67.1127 16.816 66.6114 16.816C66.11 16.816 65.646 16.9013 65.2194 17.072C64.8034 17.2427 64.4354 17.488 64.1154 17.808C63.7954 18.128 63.5447 18.5067 63.3634 18.944C63.1927 19.3813 63.1074 19.8667 63.1074 20.4C63.1074 20.9227 63.1927 21.408 63.3634 21.856C63.5447 22.2933 63.79 22.672 64.0994 22.992C64.4194 23.312 64.7927 23.5573 65.2194 23.728C65.646 23.8987 66.11 23.984 66.6114 23.984ZM74.8154 26V17.2C74.8154 16.2293 75.1034 15.456 75.6794 14.88C76.2554 14.2933 77.0767 14 78.1434 14C78.506 14 78.8527 14.0373 79.1834 14.112C79.5247 14.1867 79.8127 14.304 80.0474 14.464L79.3914 16.272C79.2527 16.176 79.098 16.1013 78.9274 16.048C78.7567 15.9947 78.5754 15.968 78.3834 15.968C78.0207 15.968 77.738 16.0747 77.5354 16.288C77.3434 16.4907 77.2474 16.8 77.2474 17.216V18.016L77.3114 19.088V26H74.8154ZM73.4874 19.504V17.584H79.4554V19.504H73.4874ZM81.1279 26V17.2C81.1279 16.2293 81.4159 15.456 81.9919 14.88C82.5679 14.2933 83.3892 14 84.4559 14C84.8185 14 85.1652 14.0373 85.4959 14.112C85.8372 14.1867 86.1252 14.304 86.3599 14.464L85.7039 16.272C85.5652 16.176 85.4105 16.1013 85.2399 16.048C85.0692 15.9947 84.8879 15.968 84.6959 15.968C84.3332 15.968 84.0505 16.0747 83.8479 16.288C83.6559 16.4907 83.5599 16.8 83.5599 17.216V18.016L83.6239 19.088V26H81.1279ZM79.7999 19.504V17.584H85.7679V19.504H79.7999Z" fill="white"/>
</svg>
