<svg width="124" height="40" viewBox="0 0 124 40" fill="none" xmlns="http://www.w3.org/2000/svg">
<path d="M0 2C0 0.895431 0.895431 0 2 0H119.091C120.884 0 121.771 2.17757 120.488 3.4306L104.993 18.5694C104.189 19.354 104.189 20.646 104.993 21.4306L120.488 36.5694C121.771 37.8224 120.884 40 119.091 40H2C0.895429 40 0 39.1046 0 38V2Z" fill="#F20202"/>
<path d="M25.256 26.192C24.4773 26.192 23.704 26.0907 22.936 25.888C22.168 25.6747 21.5173 25.376 20.984 24.992L21.992 23.008C22.4187 23.3173 22.9147 23.5627 23.48 23.744C24.0453 23.9253 24.616 24.016 25.192 24.016C25.8427 24.016 26.3547 23.888 26.728 23.632C27.1013 23.376 27.288 23.024 27.288 22.576C27.288 22.1493 27.1227 21.8133 26.792 21.568C26.4613 21.3227 25.928 21.2 25.192 21.2H24.008V19.488L27.128 15.952L27.416 16.88H21.544V14.8H29.384V16.48L26.28 20.016L24.968 19.264H25.72C27.096 19.264 28.136 19.5733 28.84 20.192C29.544 20.8107 29.896 21.6053 29.896 22.576C29.896 23.2053 29.7307 23.7973 29.4 24.352C29.0693 24.896 28.5627 25.3387 27.88 25.68C27.1973 26.0213 26.3227 26.192 25.256 26.192ZM35.8928 26.192C34.9754 26.192 34.1541 25.968 33.4288 25.52C32.7034 25.0613 32.1328 24.4 31.7168 23.536C31.3008 22.672 31.0928 21.6267 31.0928 20.4C31.0928 19.1733 31.3008 18.128 31.7168 17.264C32.1328 16.4 32.7034 15.744 33.4288 15.296C34.1541 14.8373 34.9754 14.608 35.8928 14.608C36.8208 14.608 37.6421 14.8373 38.3568 15.296C39.0821 15.744 39.6528 16.4 40.0688 17.264C40.4848 18.128 40.6928 19.1733 40.6928 20.4C40.6928 21.6267 40.4848 22.672 40.0688 23.536C39.6528 24.4 39.0821 25.0613 38.3568 25.52C37.6421 25.968 36.8208 26.192 35.8928 26.192ZM35.8928 24C36.3301 24 36.7088 23.8773 37.0288 23.632C37.3594 23.3867 37.6154 22.9973 37.7968 22.464C37.9888 21.9307 38.0848 21.2427 38.0848 20.4C38.0848 19.5573 37.9888 18.8693 37.7968 18.336C37.6154 17.8027 37.3594 17.4133 37.0288 17.168C36.7088 16.9227 36.3301 16.8 35.8928 16.8C35.4661 16.8 35.0874 16.9227 34.7568 17.168C34.4368 17.4133 34.1808 17.8027 33.9888 18.336C33.8074 18.8693 33.7168 19.5573 33.7168 20.4C33.7168 21.2427 33.8074 21.9307 33.9888 22.464C34.1808 22.9973 34.4368 23.3867 34.7568 23.632C35.0874 23.8773 35.4661 24 35.8928 24ZM43.5681 26L51.2161 14.8H53.1201L45.4721 26H43.5681ZM44.5441 20.848C44.0001 20.848 43.5201 20.7253 43.1041 20.48C42.6881 20.224 42.3575 19.8667 42.1121 19.408C41.8775 18.9387 41.7601 18.3893 41.7601 17.76C41.7601 17.1307 41.8775 16.5867 42.1121 16.128C42.3575 15.6693 42.6881 15.312 43.1041 15.056C43.5201 14.8 44.0001 14.672 44.5441 14.672C45.0881 14.672 45.5681 14.8 45.9841 15.056C46.4001 15.312 46.7255 15.6693 46.9601 16.128C47.1948 16.5867 47.3121 17.1307 47.3121 17.76C47.3121 18.3893 47.1948 18.9387 46.9601 19.408C46.7255 19.8667 46.4001 20.224 45.9841 20.48C45.5681 20.7253 45.0881 20.848 44.5441 20.848ZM44.5441 19.536C44.8961 19.536 45.1788 19.392 45.3921 19.104C45.6055 18.8053 45.7121 18.3573 45.7121 17.76C45.7121 17.1627 45.6055 16.72 45.3921 16.432C45.1788 16.1333 44.8961 15.984 44.5441 15.984C44.2028 15.984 43.9201 16.1333 43.6961 16.432C43.4828 16.72 43.3761 17.1627 43.3761 17.76C43.3761 18.3467 43.4828 18.7893 43.6961 19.088C43.9201 19.3867 44.2028 19.536 44.5441 19.536ZM52.1441 26.128C51.6108 26.128 51.1308 26.0053 50.7041 25.76C50.2881 25.504 49.9628 25.1467 49.7281 24.688C49.4935 24.2187 49.3761 23.6693 49.3761 23.04C49.3761 22.4107 49.4935 21.8667 49.7281 21.408C49.9628 20.9493 50.2881 20.592 50.7041 20.336C51.1308 20.08 51.6108 19.952 52.1441 19.952C52.6988 19.952 53.1841 20.08 53.6001 20.336C54.0161 20.592 54.3415 20.9493 54.5761 21.408C54.8108 21.8667 54.9281 22.4107 54.9281 23.04C54.9281 23.6693 54.8108 24.2187 54.5761 24.688C54.3415 25.1467 54.0161 25.504 53.6001 25.76C53.1841 26.0053 52.6988 26.128 52.1441 26.128ZM52.1441 24.816C52.4961 24.816 52.7788 24.672 52.9921 24.384C53.2055 24.0853 53.3121 23.6373 53.3121 23.04C53.3121 22.4533 53.2055 22.0107 52.9921 21.712C52.7788 21.4133 52.4961 21.264 52.1441 21.264C51.8028 21.264 51.5201 21.4133 51.2961 21.712C51.0828 22 50.9761 22.4427 50.9761 23.04C50.9761 23.6373 51.0828 24.0853 51.2961 24.384C51.5201 24.672 51.8028 24.816 52.1441 24.816ZM66.6586 26.192C65.7733 26.192 64.952 26.048 64.1946 25.76C63.448 25.472 62.7973 25.0667 62.2426 24.544C61.6986 24.0213 61.272 23.408 60.9626 22.704C60.664 22 60.5146 21.232 60.5146 20.4C60.5146 19.568 60.664 18.8 60.9626 18.096C61.272 17.392 61.704 16.7787 62.2586 16.256C62.8133 15.7333 63.464 15.328 64.2106 15.04C64.9573 14.752 65.768 14.608 66.6426 14.608C67.528 14.608 68.3386 14.752 69.0746 15.04C69.8213 15.328 70.4666 15.7333 71.0106 16.256C71.5653 16.7787 71.9973 17.392 72.3066 18.096C72.616 18.7893 72.7706 19.5573 72.7706 20.4C72.7706 21.232 72.616 22.0053 72.3066 22.72C71.9973 23.424 71.5653 24.0373 71.0106 24.56C70.4666 25.072 69.8213 25.472 69.0746 25.76C68.3386 26.048 67.5333 26.192 66.6586 26.192ZM66.6426 23.984C67.144 23.984 67.6026 23.8987 68.0186 23.728C68.4453 23.5573 68.8186 23.312 69.1386 22.992C69.4586 22.672 69.704 22.2933 69.8746 21.856C70.056 21.4187 70.1466 20.9333 70.1466 20.4C70.1466 19.8667 70.056 19.3813 69.8746 18.944C69.704 18.5067 69.4586 18.128 69.1386 17.808C68.8293 17.488 68.4613 17.2427 68.0346 17.072C67.608 16.9013 67.144 16.816 66.6426 16.816C66.1413 16.816 65.6773 16.9013 65.2506 17.072C64.8346 17.2427 64.4666 17.488 64.1466 17.808C63.8266 18.128 63.576 18.5067 63.3946 18.944C63.224 19.3813 63.1386 19.8667 63.1386 20.4C63.1386 20.9227 63.224 21.408 63.3946 21.856C63.576 22.2933 63.8213 22.672 64.1306 22.992C64.4506 23.312 64.824 23.5573 65.2506 23.728C65.6773 23.8987 66.1413 23.984 66.6426 23.984ZM74.8466 26V17.2C74.8466 16.2293 75.1346 15.456 75.7106 14.88C76.2866 14.2933 77.108 14 78.1746 14C78.5373 14 78.884 14.0373 79.2146 14.112C79.556 14.1867 79.844 14.304 80.0786 14.464L79.4226 16.272C79.284 16.176 79.1293 16.1013 78.9586 16.048C78.788 15.9947 78.6066 15.968 78.4146 15.968C78.052 15.968 77.7693 16.0747 77.5666 16.288C77.3746 16.4907 77.2786 16.8 77.2786 17.216V18.016L77.3426 19.088V26H74.8466ZM73.5186 19.504V17.584H79.4866V19.504H73.5186ZM81.1591 26V17.2C81.1591 16.2293 81.4471 15.456 82.0231 14.88C82.5991 14.2933 83.4205 14 84.4871 14C84.8498 14 85.1965 14.0373 85.5271 14.112C85.8685 14.1867 86.1565 14.304 86.3911 14.464L85.7351 16.272C85.5965 16.176 85.4418 16.1013 85.2711 16.048C85.1005 15.9947 84.9191 15.968 84.7271 15.968C84.3645 15.968 84.0818 16.0747 83.8791 16.288C83.6871 16.4907 83.5911 16.8 83.5911 17.216V18.016L83.6551 19.088V26H81.1591ZM79.8311 19.504V17.584H85.7991V19.504H79.8311Z" fill="white"/>
</svg>
