<svg width="124" height="40" viewBox="0 0 124 40" fill="none" xmlns="http://www.w3.org/2000/svg">
<path d="M0 2C0 0.895431 0.895431 0 2 0H119.091C120.884 0 121.771 2.17757 120.488 3.4306L104.993 18.5694C104.189 19.354 104.189 20.646 104.993 21.4306L120.488 36.5694C121.771 37.8224 120.884 40 119.091 40H2C0.895429 40 0 39.1046 0 38V2Z" fill="#F20202"/>
<path d="M21.496 23.648V21.904L26.776 14.8H29.496L24.328 21.904L23.064 21.536H31.88V23.648H21.496ZM27.528 26V23.648L27.608 21.536V19.44H30.056V26H27.528ZM37.4553 26.192C36.5379 26.192 35.7166 25.968 34.9913 25.52C34.2659 25.0613 33.6953 24.4 33.2793 23.536C32.8633 22.672 32.6553 21.6267 32.6553 20.4C32.6553 19.1733 32.8633 18.128 33.2793 17.264C33.6953 16.4 34.2659 15.744 34.9913 15.296C35.7166 14.8373 36.5379 14.608 37.4553 14.608C38.3833 14.608 39.2046 14.8373 39.9193 15.296C40.6446 15.744 41.2153 16.4 41.6313 17.264C42.0473 18.128 42.2553 19.1733 42.2553 20.4C42.2553 21.6267 42.0473 22.672 41.6313 23.536C41.2153 24.4 40.6446 25.0613 39.9193 25.52C39.2046 25.968 38.3833 26.192 37.4553 26.192ZM37.4553 24C37.8926 24 38.2713 23.8773 38.5913 23.632C38.9219 23.3867 39.1779 22.9973 39.3593 22.464C39.5513 21.9307 39.6473 21.2427 39.6473 20.4C39.6473 19.5573 39.5513 18.8693 39.3593 18.336C39.1779 17.8027 38.9219 17.4133 38.5913 17.168C38.2713 16.9227 37.8926 16.8 37.4553 16.8C37.0286 16.8 36.6499 16.9227 36.3193 17.168C35.9993 17.4133 35.7433 17.8027 35.5513 18.336C35.3699 18.8693 35.2793 19.5573 35.2793 20.4C35.2793 21.2427 35.3699 21.9307 35.5513 22.464C35.7433 22.9973 35.9993 23.3867 36.3193 23.632C36.6499 23.8773 37.0286 24 37.4553 24ZM45.1306 26L52.7786 14.8H54.6826L47.0346 26H45.1306ZM46.1066 20.848C45.5626 20.848 45.0826 20.7253 44.6666 20.48C44.2506 20.224 43.92 19.8667 43.6746 19.408C43.44 18.9387 43.3226 18.3893 43.3226 17.76C43.3226 17.1307 43.44 16.5867 43.6746 16.128C43.92 15.6693 44.2506 15.312 44.6666 15.056C45.0826 14.8 45.5626 14.672 46.1066 14.672C46.6506 14.672 47.1306 14.8 47.5466 15.056C47.9626 15.312 48.288 15.6693 48.5226 16.128C48.7573 16.5867 48.8746 17.1307 48.8746 17.76C48.8746 18.3893 48.7573 18.9387 48.5226 19.408C48.288 19.8667 47.9626 20.224 47.5466 20.48C47.1306 20.7253 46.6506 20.848 46.1066 20.848ZM46.1066 19.536C46.4586 19.536 46.7413 19.392 46.9546 19.104C47.168 18.8053 47.2746 18.3573 47.2746 17.76C47.2746 17.1627 47.168 16.72 46.9546 16.432C46.7413 16.1333 46.4586 15.984 46.1066 15.984C45.7653 15.984 45.4826 16.1333 45.2586 16.432C45.0453 16.72 44.9386 17.1627 44.9386 17.76C44.9386 18.3467 45.0453 18.7893 45.2586 19.088C45.4826 19.3867 45.7653 19.536 46.1066 19.536ZM53.7066 26.128C53.1733 26.128 52.6933 26.0053 52.2666 25.76C51.8506 25.504 51.5253 25.1467 51.2906 24.688C51.056 24.2187 50.9386 23.6693 50.9386 23.04C50.9386 22.4107 51.056 21.8667 51.2906 21.408C51.5253 20.9493 51.8506 20.592 52.2666 20.336C52.6933 20.08 53.1733 19.952 53.7066 19.952C54.2613 19.952 54.7466 20.08 55.1626 20.336C55.5786 20.592 55.904 20.9493 56.1386 21.408C56.3733 21.8667 56.4906 22.4107 56.4906 23.04C56.4906 23.6693 56.3733 24.2187 56.1386 24.688C55.904 25.1467 55.5786 25.504 55.1626 25.76C54.7466 26.0053 54.2613 26.128 53.7066 26.128ZM53.7066 24.816C54.0586 24.816 54.3413 24.672 54.5546 24.384C54.768 24.0853 54.8746 23.6373 54.8746 23.04C54.8746 22.4533 54.768 22.0107 54.5546 21.712C54.3413 21.4133 54.0586 21.264 53.7066 21.264C53.3653 21.264 53.0826 21.4133 52.8586 21.712C52.6453 22 52.5386 22.4427 52.5386 23.04C52.5386 23.6373 52.6453 24.0853 52.8586 24.384C53.0826 24.672 53.3653 24.816 53.7066 24.816ZM68.2211 26.192C67.3358 26.192 66.5145 26.048 65.7571 25.76C65.0105 25.472 64.3598 25.0667 63.8051 24.544C63.2611 24.0213 62.8345 23.408 62.5251 22.704C62.2265 22 62.0771 21.232 62.0771 20.4C62.0771 19.568 62.2265 18.8 62.5251 18.096C62.8345 17.392 63.2665 16.7787 63.8211 16.256C64.3758 15.7333 65.0265 15.328 65.7731 15.04C66.5198 14.752 67.3305 14.608 68.2051 14.608C69.0905 14.608 69.9011 14.752 70.6371 15.04C71.3838 15.328 72.0291 15.7333 72.5731 16.256C73.1278 16.7787 73.5598 17.392 73.8691 18.096C74.1785 18.7893 74.3331 19.5573 74.3331 20.4C74.3331 21.232 74.1785 22.0053 73.8691 22.72C73.5598 23.424 73.1278 24.0373 72.5731 24.56C72.0291 25.072 71.3838 25.472 70.6371 25.76C69.9011 26.048 69.0958 26.192 68.2211 26.192ZM68.2051 23.984C68.7065 23.984 69.1651 23.8987 69.5811 23.728C70.0078 23.5573 70.3811 23.312 70.7011 22.992C71.0211 22.672 71.2665 22.2933 71.4371 21.856C71.6185 21.4187 71.7091 20.9333 71.7091 20.4C71.7091 19.8667 71.6185 19.3813 71.4371 18.944C71.2665 18.5067 71.0211 18.128 70.7011 17.808C70.3918 17.488 70.0238 17.2427 69.5971 17.072C69.1705 16.9013 68.7065 16.816 68.2051 16.816C67.7038 16.816 67.2398 16.9013 66.8131 17.072C66.3971 17.2427 66.0291 17.488 65.7091 17.808C65.3891 18.128 65.1385 18.5067 64.9571 18.944C64.7865 19.3813 64.7011 19.8667 64.7011 20.4C64.7011 20.9227 64.7865 21.408 64.9571 21.856C65.1385 22.2933 65.3838 22.672 65.6931 22.992C66.0131 23.312 66.3865 23.5573 66.8131 23.728C67.2398 23.8987 67.7038 23.984 68.2051 23.984ZM76.4091 26V17.2C76.4091 16.2293 76.6971 15.456 77.2731 14.88C77.8491 14.2933 78.6705 14 79.7371 14C80.0998 14 80.4465 14.0373 80.7771 14.112C81.1185 14.1867 81.4065 14.304 81.6411 14.464L80.9851 16.272C80.8465 16.176 80.6918 16.1013 80.5211 16.048C80.3505 15.9947 80.1691 15.968 79.9771 15.968C79.6145 15.968 79.3318 16.0747 79.1291 16.288C78.9371 16.4907 78.8411 16.8 78.8411 17.216V18.016L78.9051 19.088V26H76.4091ZM75.0811 19.504V17.584H81.0491V19.504H75.0811ZM82.7216 26V17.2C82.7216 16.2293 83.0096 15.456 83.5856 14.88C84.1616 14.2933 84.983 14 86.0496 14C86.4123 14 86.759 14.0373 87.0896 14.112C87.431 14.1867 87.719 14.304 87.9536 14.464L87.2976 16.272C87.159 16.176 87.0043 16.1013 86.8336 16.048C86.663 15.9947 86.4816 15.968 86.2896 15.968C85.927 15.968 85.6443 16.0747 85.4416 16.288C85.2496 16.4907 85.1536 16.8 85.1536 17.216V18.016L85.2176 19.088V26H82.7216ZM81.3936 19.504V17.584H87.3616V19.504H81.3936Z" fill="white"/>
</svg>
