<svg width="124" height="40" viewBox="0 0 124 40" fill="none" xmlns="http://www.w3.org/2000/svg">
<path d="M0 2C0 0.895431 0.895431 0 2 0H119.091C120.884 0 121.771 2.17757 120.488 3.4306L104.993 18.5694C104.189 19.354 104.189 20.646 104.993 21.4306L120.488 36.5694C121.771 37.8224 120.884 40 119.091 40H2C0.895429 40 0 39.1046 0 38V2Z" fill="#F20202"/>
<path d="M25.432 26.192C24.6533 26.192 23.88 26.0907 23.112 25.888C22.3547 25.6747 21.704 25.376 21.16 24.992L22.184 23.008C22.6107 23.3173 23.1013 23.5627 23.656 23.744C24.2213 23.9253 24.792 24.016 25.368 24.016C26.0187 24.016 26.5307 23.888 26.904 23.632C27.2773 23.376 27.464 23.0187 27.464 22.56C27.464 22.272 27.3893 22.016 27.24 21.792C27.0907 21.568 26.824 21.3973 26.44 21.28C26.0667 21.1627 25.5387 21.104 24.856 21.104H21.992L22.568 14.8H29.4V16.88H23.496L24.84 15.696L24.44 20.192L23.096 19.008H25.464C26.5733 19.008 27.464 19.1627 28.136 19.472C28.8187 19.7707 29.3147 20.1813 29.624 20.704C29.9333 21.2267 30.088 21.8187 30.088 22.48C30.088 23.1413 29.9227 23.7547 29.592 24.32C29.2613 24.8747 28.7493 25.328 28.056 25.68C27.3733 26.0213 26.4987 26.192 25.432 26.192ZM35.9396 26.192C35.0223 26.192 34.201 25.968 33.4756 25.52C32.7503 25.0613 32.1796 24.4 31.7636 23.536C31.3476 22.672 31.1396 21.6267 31.1396 20.4C31.1396 19.1733 31.3476 18.128 31.7636 17.264C32.1796 16.4 32.7503 15.744 33.4756 15.296C34.201 14.8373 35.0223 14.608 35.9396 14.608C36.8676 14.608 37.689 14.8373 38.4036 15.296C39.129 15.744 39.6996 16.4 40.1156 17.264C40.5316 18.128 40.7396 19.1733 40.7396 20.4C40.7396 21.6267 40.5316 22.672 40.1156 23.536C39.6996 24.4 39.129 25.0613 38.4036 25.52C37.689 25.968 36.8676 26.192 35.9396 26.192ZM35.9396 24C36.377 24 36.7556 23.8773 37.0756 23.632C37.4063 23.3867 37.6623 22.9973 37.8436 22.464C38.0356 21.9307 38.1316 21.2427 38.1316 20.4C38.1316 19.5573 38.0356 18.8693 37.8436 18.336C37.6623 17.8027 37.4063 17.4133 37.0756 17.168C36.7556 16.9227 36.377 16.8 35.9396 16.8C35.513 16.8 35.1343 16.9227 34.8036 17.168C34.4836 17.4133 34.2276 17.8027 34.0356 18.336C33.8543 18.8693 33.7636 19.5573 33.7636 20.4C33.7636 21.2427 33.8543 21.9307 34.0356 22.464C34.2276 22.9973 34.4836 23.3867 34.8036 23.632C35.1343 23.8773 35.513 24 35.9396 24ZM43.615 26L51.263 14.8H53.167L45.519 26H43.615ZM44.591 20.848C44.047 20.848 43.567 20.7253 43.151 20.48C42.735 20.224 42.4043 19.8667 42.159 19.408C41.9243 18.9387 41.807 18.3893 41.807 17.76C41.807 17.1307 41.9243 16.5867 42.159 16.128C42.4043 15.6693 42.735 15.312 43.151 15.056C43.567 14.8 44.047 14.672 44.591 14.672C45.135 14.672 45.615 14.8 46.031 15.056C46.447 15.312 46.7723 15.6693 47.007 16.128C47.2417 16.5867 47.359 17.1307 47.359 17.76C47.359 18.3893 47.2417 18.9387 47.007 19.408C46.7723 19.8667 46.447 20.224 46.031 20.48C45.615 20.7253 45.135 20.848 44.591 20.848ZM44.591 19.536C44.943 19.536 45.2257 19.392 45.439 19.104C45.6523 18.8053 45.759 18.3573 45.759 17.76C45.759 17.1627 45.6523 16.72 45.439 16.432C45.2257 16.1333 44.943 15.984 44.591 15.984C44.2497 15.984 43.967 16.1333 43.743 16.432C43.5297 16.72 43.423 17.1627 43.423 17.76C43.423 18.3467 43.5297 18.7893 43.743 19.088C43.967 19.3867 44.2497 19.536 44.591 19.536ZM52.191 26.128C51.6577 26.128 51.1777 26.0053 50.751 25.76C50.335 25.504 50.0097 25.1467 49.775 24.688C49.5403 24.2187 49.423 23.6693 49.423 23.04C49.423 22.4107 49.5403 21.8667 49.775 21.408C50.0097 20.9493 50.335 20.592 50.751 20.336C51.1777 20.08 51.6577 19.952 52.191 19.952C52.7457 19.952 53.231 20.08 53.647 20.336C54.063 20.592 54.3883 20.9493 54.623 21.408C54.8577 21.8667 54.975 22.4107 54.975 23.04C54.975 23.6693 54.8577 24.2187 54.623 24.688C54.3883 25.1467 54.063 25.504 53.647 25.76C53.231 26.0053 52.7457 26.128 52.191 26.128ZM52.191 24.816C52.543 24.816 52.8257 24.672 53.039 24.384C53.2523 24.0853 53.359 23.6373 53.359 23.04C53.359 22.4533 53.2523 22.0107 53.039 21.712C52.8257 21.4133 52.543 21.264 52.191 21.264C51.8497 21.264 51.567 21.4133 51.343 21.712C51.1297 22 51.023 22.4427 51.023 23.04C51.023 23.6373 51.1297 24.0853 51.343 24.384C51.567 24.672 51.8497 24.816 52.191 24.816ZM66.7055 26.192C65.8202 26.192 64.9988 26.048 64.2415 25.76C63.4948 25.472 62.8442 25.0667 62.2895 24.544C61.7455 24.0213 61.3188 23.408 61.0095 22.704C60.7108 22 60.5615 21.232 60.5615 20.4C60.5615 19.568 60.7108 18.8 61.0095 18.096C61.3188 17.392 61.7508 16.7787 62.3055 16.256C62.8602 15.7333 63.5108 15.328 64.2575 15.04C65.0042 14.752 65.8148 14.608 66.6895 14.608C67.5748 14.608 68.3855 14.752 69.1215 15.04C69.8682 15.328 70.5135 15.7333 71.0575 16.256C71.6122 16.7787 72.0442 17.392 72.3535 18.096C72.6628 18.7893 72.8175 19.5573 72.8175 20.4C72.8175 21.232 72.6628 22.0053 72.3535 22.72C72.0442 23.424 71.6122 24.0373 71.0575 24.56C70.5135 25.072 69.8682 25.472 69.1215 25.76C68.3855 26.048 67.5802 26.192 66.7055 26.192ZM66.6895 23.984C67.1908 23.984 67.6495 23.8987 68.0655 23.728C68.4922 23.5573 68.8655 23.312 69.1855 22.992C69.5055 22.672 69.7508 22.2933 69.9215 21.856C70.1028 21.4187 70.1935 20.9333 70.1935 20.4C70.1935 19.8667 70.1028 19.3813 69.9215 18.944C69.7508 18.5067 69.5055 18.128 69.1855 17.808C68.8762 17.488 68.5082 17.2427 68.0815 17.072C67.6548 16.9013 67.1908 16.816 66.6895 16.816C66.1882 16.816 65.7242 16.9013 65.2975 17.072C64.8815 17.2427 64.5135 17.488 64.1935 17.808C63.8735 18.128 63.6228 18.5067 63.4415 18.944C63.2708 19.3813 63.1855 19.8667 63.1855 20.4C63.1855 20.9227 63.2708 21.408 63.4415 21.856C63.6228 22.2933 63.8682 22.672 64.1775 22.992C64.4975 23.312 64.8708 23.5573 65.2975 23.728C65.7242 23.8987 66.1882 23.984 66.6895 23.984ZM74.8935 26V17.2C74.8935 16.2293 75.1815 15.456 75.7575 14.88C76.3335 14.2933 77.1548 14 78.2215 14C78.5842 14 78.9308 14.0373 79.2615 14.112C79.6028 14.1867 79.8908 14.304 80.1255 14.464L79.4695 16.272C79.3308 16.176 79.1762 16.1013 79.0055 16.048C78.8348 15.9947 78.6535 15.968 78.4615 15.968C78.0988 15.968 77.8162 16.0747 77.6135 16.288C77.4215 16.4907 77.3255 16.8 77.3255 17.216V18.016L77.3895 19.088V26H74.8935ZM73.5655 19.504V17.584H79.5335V19.504H73.5655ZM81.206 26V17.2C81.206 16.2293 81.494 15.456 82.07 14.88C82.646 14.2933 83.4673 14 84.534 14C84.8967 14 85.2433 14.0373 85.574 14.112C85.9153 14.1867 86.2033 14.304 86.438 14.464L85.782 16.272C85.6433 16.176 85.4887 16.1013 85.318 16.048C85.1473 15.9947 84.966 15.968 84.774 15.968C84.4113 15.968 84.1287 16.0747 83.926 16.288C83.734 16.4907 83.638 16.8 83.638 17.216V18.016L83.702 19.088V26H81.206ZM79.878 19.504V17.584H85.846V19.504H79.878Z" fill="white"/>
</svg>
