<svg width="124" height="40" viewBox="0 0 124 40" fill="none" xmlns="http://www.w3.org/2000/svg">
<path d="M0 2C0 0.895431 0.895431 0 2 0H119.091C120.884 0 121.771 2.17757 120.488 3.4306L104.993 18.5694C104.189 19.354 104.189 20.646 104.993 21.4306L120.488 36.5694C121.771 37.8224 120.884 40 119.091 40H2C0.895429 40 0 39.1046 0 38V2Z" fill="#F20202"/>
<path d="M26.632 26.192C25.608 26.192 24.7173 25.9787 23.96 25.552C23.2133 25.1253 22.6373 24.5013 22.232 23.68C21.8267 22.8587 21.624 21.8453 21.624 20.64C21.624 19.3493 21.864 18.256 22.344 17.36C22.8347 16.464 23.5067 15.7813 24.36 15.312C25.224 14.8427 26.216 14.608 27.336 14.608C27.9333 14.608 28.504 14.672 29.048 14.8C29.592 14.928 30.0613 15.12 30.456 15.376L29.496 17.28C29.1867 17.0667 28.856 16.9227 28.504 16.848C28.152 16.7627 27.784 16.72 27.4 16.72C26.4293 16.72 25.6613 17.0133 25.096 17.6C24.5307 18.1867 24.248 19.056 24.248 20.208C24.248 20.4 24.248 20.6133 24.248 20.848C24.2587 21.0827 24.2907 21.3173 24.344 21.552L23.624 20.88C23.8267 20.464 24.088 20.1173 24.408 19.84C24.728 19.552 25.1067 19.3387 25.544 19.2C25.992 19.0507 26.4827 18.976 27.016 18.976C27.7413 18.976 28.392 19.12 28.968 19.408C29.544 19.696 30.0027 20.1013 30.344 20.624C30.696 21.1467 30.872 21.76 30.872 22.464C30.872 23.2213 30.68 23.8827 30.296 24.448C29.9227 25.0027 29.416 25.4347 28.776 25.744C28.1467 26.0427 27.432 26.192 26.632 26.192ZM26.488 24.256C26.8507 24.256 27.1707 24.192 27.448 24.064C27.736 23.9253 27.96 23.728 28.12 23.472C28.28 23.216 28.36 22.9227 28.36 22.592C28.36 22.08 28.184 21.6747 27.832 21.376C27.4907 21.0667 27.032 20.912 26.456 20.912C26.072 20.912 25.736 20.9867 25.448 21.136C25.16 21.2747 24.9307 21.472 24.76 21.728C24.6 21.9733 24.52 22.2613 24.52 22.592C24.52 22.912 24.6 23.2 24.76 23.456C24.92 23.7013 25.144 23.8987 25.432 24.048C25.72 24.1867 26.072 24.256 26.488 24.256ZM36.6115 26.192C35.6942 26.192 34.8728 25.968 34.1475 25.52C33.4222 25.0613 32.8515 24.4 32.4355 23.536C32.0195 22.672 31.8115 21.6267 31.8115 20.4C31.8115 19.1733 32.0195 18.128 32.4355 17.264C32.8515 16.4 33.4222 15.744 34.1475 15.296C34.8728 14.8373 35.6942 14.608 36.6115 14.608C37.5395 14.608 38.3608 14.8373 39.0755 15.296C39.8008 15.744 40.3715 16.4 40.7875 17.264C41.2035 18.128 41.4115 19.1733 41.4115 20.4C41.4115 21.6267 41.2035 22.672 40.7875 23.536C40.3715 24.4 39.8008 25.0613 39.0755 25.52C38.3608 25.968 37.5395 26.192 36.6115 26.192ZM36.6115 24C37.0488 24 37.4275 23.8773 37.7475 23.632C38.0782 23.3867 38.3342 22.9973 38.5155 22.464C38.7075 21.9307 38.8035 21.2427 38.8035 20.4C38.8035 19.5573 38.7075 18.8693 38.5155 18.336C38.3342 17.8027 38.0782 17.4133 37.7475 17.168C37.4275 16.9227 37.0488 16.8 36.6115 16.8C36.1848 16.8 35.8062 16.9227 35.4755 17.168C35.1555 17.4133 34.8995 17.8027 34.7075 18.336C34.5262 18.8693 34.4355 19.5573 34.4355 20.4C34.4355 21.2427 34.5262 21.9307 34.7075 22.464C34.8995 22.9973 35.1555 23.3867 35.4755 23.632C35.8062 23.8773 36.1848 24 36.6115 24ZM44.2869 26L51.9349 14.8H53.8389L46.1909 26H44.2869ZM45.2629 20.848C44.7189 20.848 44.2389 20.7253 43.8229 20.48C43.4069 20.224 43.0762 19.8667 42.8309 19.408C42.5962 18.9387 42.4789 18.3893 42.4789 17.76C42.4789 17.1307 42.5962 16.5867 42.8309 16.128C43.0762 15.6693 43.4069 15.312 43.8229 15.056C44.2389 14.8 44.7189 14.672 45.2629 14.672C45.8069 14.672 46.2869 14.8 46.7029 15.056C47.1189 15.312 47.4442 15.6693 47.6789 16.128C47.9135 16.5867 48.0309 17.1307 48.0309 17.76C48.0309 18.3893 47.9135 18.9387 47.6789 19.408C47.4442 19.8667 47.1189 20.224 46.7029 20.48C46.2869 20.7253 45.8069 20.848 45.2629 20.848ZM45.2629 19.536C45.6149 19.536 45.8975 19.392 46.1109 19.104C46.3242 18.8053 46.4309 18.3573 46.4309 17.76C46.4309 17.1627 46.3242 16.72 46.1109 16.432C45.8975 16.1333 45.6149 15.984 45.2629 15.984C44.9215 15.984 44.6389 16.1333 44.4149 16.432C44.2015 16.72 44.0949 17.1627 44.0949 17.76C44.0949 18.3467 44.2015 18.7893 44.4149 19.088C44.6389 19.3867 44.9215 19.536 45.2629 19.536ZM52.8629 26.128C52.3295 26.128 51.8495 26.0053 51.4229 25.76C51.0069 25.504 50.6815 25.1467 50.4469 24.688C50.2122 24.2187 50.0949 23.6693 50.0949 23.04C50.0949 22.4107 50.2122 21.8667 50.4469 21.408C50.6815 20.9493 51.0069 20.592 51.4229 20.336C51.8495 20.08 52.3295 19.952 52.8629 19.952C53.4175 19.952 53.9029 20.08 54.3189 20.336C54.7349 20.592 55.0602 20.9493 55.2949 21.408C55.5295 21.8667 55.6469 22.4107 55.6469 23.04C55.6469 23.6693 55.5295 24.2187 55.2949 24.688C55.0602 25.1467 54.7349 25.504 54.3189 25.76C53.9029 26.0053 53.4175 26.128 52.8629 26.128ZM52.8629 24.816C53.2149 24.816 53.4975 24.672 53.7109 24.384C53.9242 24.0853 54.0309 23.6373 54.0309 23.04C54.0309 22.4533 53.9242 22.0107 53.7109 21.712C53.4975 21.4133 53.2149 21.264 52.8629 21.264C52.5215 21.264 52.2389 21.4133 52.0149 21.712C51.8015 22 51.6949 22.4427 51.6949 23.04C51.6949 23.6373 51.8015 24.0853 52.0149 24.384C52.2389 24.672 52.5215 24.816 52.8629 24.816ZM67.3774 26.192C66.492 26.192 65.6707 26.048 64.9134 25.76C64.1667 25.472 63.516 25.0667 62.9614 24.544C62.4174 24.0213 61.9907 23.408 61.6814 22.704C61.3827 22 61.2334 21.232 61.2334 20.4C61.2334 19.568 61.3827 18.8 61.6814 18.096C61.9907 17.392 62.4227 16.7787 62.9774 16.256C63.532 15.7333 64.1827 15.328 64.9294 15.04C65.676 14.752 66.4867 14.608 67.3614 14.608C68.2467 14.608 69.0574 14.752 69.7934 15.04C70.54 15.328 71.1854 15.7333 71.7294 16.256C72.284 16.7787 72.716 17.392 73.0254 18.096C73.3347 18.7893 73.4894 19.5573 73.4894 20.4C73.4894 21.232 73.3347 22.0053 73.0254 22.72C72.716 23.424 72.284 24.0373 71.7294 24.56C71.1854 25.072 70.54 25.472 69.7934 25.76C69.0574 26.048 68.252 26.192 67.3774 26.192ZM67.3614 23.984C67.8627 23.984 68.3214 23.8987 68.7374 23.728C69.164 23.5573 69.5374 23.312 69.8574 22.992C70.1774 22.672 70.4227 22.2933 70.5934 21.856C70.7747 21.4187 70.8654 20.9333 70.8654 20.4C70.8654 19.8667 70.7747 19.3813 70.5934 18.944C70.4227 18.5067 70.1774 18.128 69.8574 17.808C69.548 17.488 69.18 17.2427 68.7534 17.072C68.3267 16.9013 67.8627 16.816 67.3614 16.816C66.86 16.816 66.396 16.9013 65.9694 17.072C65.5534 17.2427 65.1854 17.488 64.8654 17.808C64.5454 18.128 64.2947 18.5067 64.1134 18.944C63.9427 19.3813 63.8574 19.8667 63.8574 20.4C63.8574 20.9227 63.9427 21.408 64.1134 21.856C64.2947 22.2933 64.54 22.672 64.8494 22.992C65.1694 23.312 65.5427 23.5573 65.9694 23.728C66.396 23.8987 66.86 23.984 67.3614 23.984ZM75.5654 26V17.2C75.5654 16.2293 75.8534 15.456 76.4294 14.88C77.0054 14.2933 77.8267 14 78.8934 14C79.256 14 79.6027 14.0373 79.9334 14.112C80.2747 14.1867 80.5627 14.304 80.7974 14.464L80.1414 16.272C80.0027 16.176 79.848 16.1013 79.6774 16.048C79.5067 15.9947 79.3254 15.968 79.1334 15.968C78.7707 15.968 78.488 16.0747 78.2854 16.288C78.0934 16.4907 77.9974 16.8 77.9974 17.216V18.016L78.0614 19.088V26H75.5654ZM74.2374 19.504V17.584H80.2054V19.504H74.2374ZM81.8779 26V17.2C81.8779 16.2293 82.1659 15.456 82.7419 14.88C83.3179 14.2933 84.1392 14 85.2059 14C85.5685 14 85.9152 14.0373 86.2459 14.112C86.5872 14.1867 86.8752 14.304 87.1099 14.464L86.4539 16.272C86.3152 16.176 86.1605 16.1013 85.9899 16.048C85.8192 15.9947 85.6379 15.968 85.4459 15.968C85.0832 15.968 84.8005 16.0747 84.5979 16.288C84.4059 16.4907 84.3099 16.8 84.3099 17.216V18.016L84.3739 19.088V26H81.8779ZM80.5499 19.504V17.584H86.5179V19.504H80.5499Z" fill="white"/>
</svg>
