<svg width="124" height="40" viewBox="0 0 124 40" fill="none" xmlns="http://www.w3.org/2000/svg">
<path d="M0 2C0 0.895431 0.895431 0 2 0H119.091C120.884 0 121.771 2.17757 120.488 3.4306L104.993 18.5694C104.189 19.354 104.189 20.646 104.993 21.4306L120.488 36.5694C121.771 37.8224 120.884 40 119.091 40H2C0.895429 40 0 39.1046 0 38V2Z" fill="#F20202"/>
<path d="M23.416 26L27.928 15.792L28.6 16.912H22.568L23.72 15.696V18.736H21.416V14.8H30.392V16.48L26.232 26H23.416ZM36.0334 26.192C35.116 26.192 34.2947 25.968 33.5694 25.52C32.844 25.0613 32.2734 24.4 31.8574 23.536C31.4414 22.672 31.2334 21.6267 31.2334 20.4C31.2334 19.1733 31.4414 18.128 31.8574 17.264C32.2734 16.4 32.844 15.744 33.5694 15.296C34.2947 14.8373 35.116 14.608 36.0334 14.608C36.9614 14.608 37.7827 14.8373 38.4974 15.296C39.2227 15.744 39.7934 16.4 40.2094 17.264C40.6254 18.128 40.8334 19.1733 40.8334 20.4C40.8334 21.6267 40.6254 22.672 40.2094 23.536C39.7934 24.4 39.2227 25.0613 38.4974 25.52C37.7827 25.968 36.9614 26.192 36.0334 26.192ZM36.0334 24C36.4707 24 36.8494 23.8773 37.1694 23.632C37.5 23.3867 37.756 22.9973 37.9374 22.464C38.1294 21.9307 38.2254 21.2427 38.2254 20.4C38.2254 19.5573 38.1294 18.8693 37.9374 18.336C37.756 17.8027 37.5 17.4133 37.1694 17.168C36.8494 16.9227 36.4707 16.8 36.0334 16.8C35.6067 16.8 35.228 16.9227 34.8974 17.168C34.5774 17.4133 34.3214 17.8027 34.1294 18.336C33.948 18.8693 33.8574 19.5573 33.8574 20.4C33.8574 21.2427 33.948 21.9307 34.1294 22.464C34.3214 22.9973 34.5774 23.3867 34.8974 23.632C35.228 23.8773 35.6067 24 36.0334 24ZM43.7088 26L51.3568 14.8H53.2608L45.6128 26H43.7088ZM44.6848 20.848C44.1408 20.848 43.6608 20.7253 43.2448 20.48C42.8288 20.224 42.4981 19.8667 42.2528 19.408C42.0181 18.9387 41.9008 18.3893 41.9008 17.76C41.9008 17.1307 42.0181 16.5867 42.2528 16.128C42.4981 15.6693 42.8288 15.312 43.2448 15.056C43.6608 14.8 44.1408 14.672 44.6848 14.672C45.2288 14.672 45.7088 14.8 46.1248 15.056C46.5408 15.312 46.8661 15.6693 47.1008 16.128C47.3354 16.5867 47.4528 17.1307 47.4528 17.76C47.4528 18.3893 47.3354 18.9387 47.1008 19.408C46.8661 19.8667 46.5408 20.224 46.1248 20.48C45.7088 20.7253 45.2288 20.848 44.6848 20.848ZM44.6848 19.536C45.0368 19.536 45.3194 19.392 45.5328 19.104C45.7461 18.8053 45.8528 18.3573 45.8528 17.76C45.8528 17.1627 45.7461 16.72 45.5328 16.432C45.3194 16.1333 45.0368 15.984 44.6848 15.984C44.3434 15.984 44.0608 16.1333 43.8368 16.432C43.6234 16.72 43.5168 17.1627 43.5168 17.76C43.5168 18.3467 43.6234 18.7893 43.8368 19.088C44.0608 19.3867 44.3434 19.536 44.6848 19.536ZM52.2848 26.128C51.7514 26.128 51.2714 26.0053 50.8448 25.76C50.4288 25.504 50.1034 25.1467 49.8688 24.688C49.6341 24.2187 49.5168 23.6693 49.5168 23.04C49.5168 22.4107 49.6341 21.8667 49.8688 21.408C50.1034 20.9493 50.4288 20.592 50.8448 20.336C51.2714 20.08 51.7514 19.952 52.2848 19.952C52.8394 19.952 53.3248 20.08 53.7408 20.336C54.1568 20.592 54.4821 20.9493 54.7168 21.408C54.9514 21.8667 55.0688 22.4107 55.0688 23.04C55.0688 23.6693 54.9514 24.2187 54.7168 24.688C54.4821 25.1467 54.1568 25.504 53.7408 25.76C53.3248 26.0053 52.8394 26.128 52.2848 26.128ZM52.2848 24.816C52.6368 24.816 52.9194 24.672 53.1328 24.384C53.3461 24.0853 53.4528 23.6373 53.4528 23.04C53.4528 22.4533 53.3461 22.0107 53.1328 21.712C52.9194 21.4133 52.6368 21.264 52.2848 21.264C51.9434 21.264 51.6608 21.4133 51.4368 21.712C51.2234 22 51.1168 22.4427 51.1168 23.04C51.1168 23.6373 51.2234 24.0853 51.4368 24.384C51.6608 24.672 51.9434 24.816 52.2848 24.816ZM66.7993 26.192C65.9139 26.192 65.0926 26.048 64.3353 25.76C63.5886 25.472 62.9379 25.0667 62.3832 24.544C61.8393 24.0213 61.4126 23.408 61.1033 22.704C60.8046 22 60.6553 21.232 60.6553 20.4C60.6553 19.568 60.8046 18.8 61.1033 18.096C61.4126 17.392 61.8446 16.7787 62.3993 16.256C62.9539 15.7333 63.6046 15.328 64.3513 15.04C65.0979 14.752 65.9086 14.608 66.7833 14.608C67.6686 14.608 68.4792 14.752 69.2153 15.04C69.9619 15.328 70.6073 15.7333 71.1513 16.256C71.7059 16.7787 72.1379 17.392 72.4473 18.096C72.7566 18.7893 72.9113 19.5573 72.9113 20.4C72.9113 21.232 72.7566 22.0053 72.4473 22.72C72.1379 23.424 71.7059 24.0373 71.1513 24.56C70.6073 25.072 69.9619 25.472 69.2153 25.76C68.4792 26.048 67.6739 26.192 66.7993 26.192ZM66.7833 23.984C67.2846 23.984 67.7433 23.8987 68.1593 23.728C68.5859 23.5573 68.9593 23.312 69.2793 22.992C69.5993 22.672 69.8446 22.2933 70.0153 21.856C70.1966 21.4187 70.2873 20.9333 70.2873 20.4C70.2873 19.8667 70.1966 19.3813 70.0153 18.944C69.8446 18.5067 69.5993 18.128 69.2793 17.808C68.9699 17.488 68.6019 17.2427 68.1753 17.072C67.7486 16.9013 67.2846 16.816 66.7833 16.816C66.2819 16.816 65.8179 16.9013 65.3913 17.072C64.9753 17.2427 64.6073 17.488 64.2873 17.808C63.9673 18.128 63.7166 18.5067 63.5353 18.944C63.3646 19.3813 63.2793 19.8667 63.2793 20.4C63.2793 20.9227 63.3646 21.408 63.5353 21.856C63.7166 22.2933 63.9619 22.672 64.2713 22.992C64.5913 23.312 64.9646 23.5573 65.3913 23.728C65.8179 23.8987 66.2819 23.984 66.7833 23.984ZM74.9873 26V17.2C74.9873 16.2293 75.2753 15.456 75.8513 14.88C76.4273 14.2933 77.2486 14 78.3153 14C78.6779 14 79.0246 14.0373 79.3553 14.112C79.6966 14.1867 79.9846 14.304 80.2193 14.464L79.5633 16.272C79.4246 16.176 79.2699 16.1013 79.0993 16.048C78.9286 15.9947 78.7473 15.968 78.5553 15.968C78.1926 15.968 77.9099 16.0747 77.7073 16.288C77.5153 16.4907 77.4193 16.8 77.4193 17.216V18.016L77.4833 19.088V26H74.9873ZM73.6593 19.504V17.584H79.6273V19.504H73.6593ZM81.2998 26V17.2C81.2998 16.2293 81.5878 15.456 82.1638 14.88C82.7398 14.2933 83.5611 14 84.6278 14C84.9904 14 85.3371 14.0373 85.6678 14.112C86.0091 14.1867 86.2971 14.304 86.5318 14.464L85.8758 16.272C85.7371 16.176 85.5824 16.1013 85.4118 16.048C85.2411 15.9947 85.0598 15.968 84.8678 15.968C84.5051 15.968 84.2224 16.0747 84.0198 16.288C83.8278 16.4907 83.7318 16.8 83.7318 17.216V18.016L83.7958 19.088V26H81.2998ZM79.9718 19.504V17.584H85.9398V19.504H79.9718Z" fill="white"/>
</svg>
