<svg width="124" height="40" viewBox="0 0 124 40" fill="none" xmlns="http://www.w3.org/2000/svg">
<path d="M0 2C0 0.895431 0.895431 0 2 0H119.091C120.884 0 121.771 2.17757 120.488 3.4306L104.993 18.5694C104.189 19.354 104.189 20.646 104.993 21.4306L120.488 36.5694C121.771 37.8224 120.884 40 119.091 40H2C0.895429 40 0 39.1046 0 38V2Z" fill="#F20202"/>
<path d="M26.264 26.192C25.3253 26.192 24.504 26.0533 23.8 25.776C23.096 25.488 22.5467 25.088 22.152 24.576C21.7573 24.0533 21.56 23.4453 21.56 22.752C21.56 22.0587 21.752 21.472 22.136 20.992C22.5307 20.5013 23.08 20.1333 23.784 19.888C24.488 19.632 25.3147 19.504 26.264 19.504C27.224 19.504 28.056 19.632 28.76 19.888C29.4747 20.1333 30.024 20.5013 30.408 20.992C30.8027 21.472 31 22.0587 31 22.752C31 23.4453 30.8027 24.0533 30.408 24.576C30.0133 25.088 29.4587 25.488 28.744 25.776C28.04 26.0533 27.2133 26.192 26.264 26.192ZM26.264 24.288C26.9147 24.288 27.4267 24.144 27.8 23.856C28.184 23.568 28.376 23.1733 28.376 22.672C28.376 22.1707 28.184 21.7813 27.8 21.504C27.4267 21.216 26.9147 21.072 26.264 21.072C25.624 21.072 25.1173 21.216 24.744 21.504C24.3707 21.7813 24.184 22.1707 24.184 22.672C24.184 23.1733 24.3707 23.568 24.744 23.856C25.1173 24.144 25.624 24.288 26.264 24.288ZM26.264 20.816C25.4 20.816 24.6427 20.6987 23.992 20.464C23.352 20.2293 22.8507 19.888 22.488 19.44C22.136 18.9813 21.96 18.4373 21.96 17.808C21.96 17.1467 22.1413 16.5813 22.504 16.112C22.8667 15.632 23.3733 15.264 24.024 15.008C24.6747 14.7413 25.4213 14.608 26.264 14.608C27.128 14.608 27.88 14.7413 28.52 15.008C29.1707 15.264 29.6773 15.632 30.04 16.112C30.4133 16.5813 30.6 17.1467 30.6 17.808C30.6 18.4373 30.4187 18.9813 30.056 19.44C29.704 19.888 29.2027 20.2293 28.552 20.464C27.9013 20.6987 27.1387 20.816 26.264 20.816ZM26.264 19.296C26.808 19.296 27.2347 19.1733 27.544 18.928C27.864 18.6827 28.024 18.3467 28.024 17.92C28.024 17.472 27.8587 17.1253 27.528 16.88C27.208 16.6347 26.7867 16.512 26.264 16.512C25.752 16.512 25.336 16.6347 25.016 16.88C24.696 17.1253 24.536 17.472 24.536 17.92C24.536 18.3467 24.6907 18.6827 25 18.928C25.3093 19.1733 25.7307 19.296 26.264 19.296ZM36.9865 26.192C36.0692 26.192 35.2478 25.968 34.5225 25.52C33.7972 25.0613 33.2265 24.4 32.8105 23.536C32.3945 22.672 32.1865 21.6267 32.1865 20.4C32.1865 19.1733 32.3945 18.128 32.8105 17.264C33.2265 16.4 33.7972 15.744 34.5225 15.296C35.2478 14.8373 36.0692 14.608 36.9865 14.608C37.9145 14.608 38.7358 14.8373 39.4505 15.296C40.1758 15.744 40.7465 16.4 41.1625 17.264C41.5785 18.128 41.7865 19.1733 41.7865 20.4C41.7865 21.6267 41.5785 22.672 41.1625 23.536C40.7465 24.4 40.1758 25.0613 39.4505 25.52C38.7358 25.968 37.9145 26.192 36.9865 26.192ZM36.9865 24C37.4238 24 37.8025 23.8773 38.1225 23.632C38.4532 23.3867 38.7092 22.9973 38.8905 22.464C39.0825 21.9307 39.1785 21.2427 39.1785 20.4C39.1785 19.5573 39.0825 18.8693 38.8905 18.336C38.7092 17.8027 38.4532 17.4133 38.1225 17.168C37.8025 16.9227 37.4238 16.8 36.9865 16.8C36.5598 16.8 36.1812 16.9227 35.8505 17.168C35.5305 17.4133 35.2745 17.8027 35.0825 18.336C34.9012 18.8693 34.8105 19.5573 34.8105 20.4C34.8105 21.2427 34.9012 21.9307 35.0825 22.464C35.2745 22.9973 35.5305 23.3867 35.8505 23.632C36.1812 23.8773 36.5598 24 36.9865 24ZM44.6619 26L52.3099 14.8H54.2139L46.5659 26H44.6619ZM45.6379 20.848C45.0939 20.848 44.6139 20.7253 44.1979 20.48C43.7819 20.224 43.4512 19.8667 43.2059 19.408C42.9712 18.9387 42.8539 18.3893 42.8539 17.76C42.8539 17.1307 42.9712 16.5867 43.2059 16.128C43.4512 15.6693 43.7819 15.312 44.1979 15.056C44.6139 14.8 45.0939 14.672 45.6379 14.672C46.1819 14.672 46.6619 14.8 47.0779 15.056C47.4939 15.312 47.8192 15.6693 48.0539 16.128C48.2885 16.5867 48.4059 17.1307 48.4059 17.76C48.4059 18.3893 48.2885 18.9387 48.0539 19.408C47.8192 19.8667 47.4939 20.224 47.0779 20.48C46.6619 20.7253 46.1819 20.848 45.6379 20.848ZM45.6379 19.536C45.9899 19.536 46.2725 19.392 46.4859 19.104C46.6992 18.8053 46.8059 18.3573 46.8059 17.76C46.8059 17.1627 46.6992 16.72 46.4859 16.432C46.2725 16.1333 45.9899 15.984 45.6379 15.984C45.2965 15.984 45.0139 16.1333 44.7899 16.432C44.5765 16.72 44.4699 17.1627 44.4699 17.76C44.4699 18.3467 44.5765 18.7893 44.7899 19.088C45.0139 19.3867 45.2965 19.536 45.6379 19.536ZM53.2379 26.128C52.7045 26.128 52.2245 26.0053 51.7979 25.76C51.3819 25.504 51.0565 25.1467 50.8219 24.688C50.5872 24.2187 50.4699 23.6693 50.4699 23.04C50.4699 22.4107 50.5872 21.8667 50.8219 21.408C51.0565 20.9493 51.3819 20.592 51.7979 20.336C52.2245 20.08 52.7045 19.952 53.2379 19.952C53.7925 19.952 54.2779 20.08 54.6939 20.336C55.1099 20.592 55.4352 20.9493 55.6699 21.408C55.9045 21.8667 56.0219 22.4107 56.0219 23.04C56.0219 23.6693 55.9045 24.2187 55.6699 24.688C55.4352 25.1467 55.1099 25.504 54.6939 25.76C54.2779 26.0053 53.7925 26.128 53.2379 26.128ZM53.2379 24.816C53.5899 24.816 53.8725 24.672 54.0859 24.384C54.2992 24.0853 54.4059 23.6373 54.4059 23.04C54.4059 22.4533 54.2992 22.0107 54.0859 21.712C53.8725 21.4133 53.5899 21.264 53.2379 21.264C52.8965 21.264 52.6139 21.4133 52.3899 21.712C52.1765 22 52.0699 22.4427 52.0699 23.04C52.0699 23.6373 52.1765 24.0853 52.3899 24.384C52.6139 24.672 52.8965 24.816 53.2379 24.816ZM67.7524 26.192C66.867 26.192 66.0457 26.048 65.2884 25.76C64.5417 25.472 63.891 25.0667 63.3364 24.544C62.7924 24.0213 62.3657 23.408 62.0564 22.704C61.7577 22 61.6084 21.232 61.6084 20.4C61.6084 19.568 61.7577 18.8 62.0564 18.096C62.3657 17.392 62.7977 16.7787 63.3524 16.256C63.907 15.7333 64.5577 15.328 65.3044 15.04C66.051 14.752 66.8617 14.608 67.7364 14.608C68.6217 14.608 69.4324 14.752 70.1684 15.04C70.915 15.328 71.5604 15.7333 72.1044 16.256C72.659 16.7787 73.091 17.392 73.4004 18.096C73.7097 18.7893 73.8644 19.5573 73.8644 20.4C73.8644 21.232 73.7097 22.0053 73.4004 22.72C73.091 23.424 72.659 24.0373 72.1044 24.56C71.5604 25.072 70.915 25.472 70.1684 25.76C69.4324 26.048 68.627 26.192 67.7524 26.192ZM67.7364 23.984C68.2377 23.984 68.6964 23.8987 69.1124 23.728C69.539 23.5573 69.9124 23.312 70.2324 22.992C70.5524 22.672 70.7977 22.2933 70.9684 21.856C71.1497 21.4187 71.2404 20.9333 71.2404 20.4C71.2404 19.8667 71.1497 19.3813 70.9684 18.944C70.7977 18.5067 70.5524 18.128 70.2324 17.808C69.923 17.488 69.555 17.2427 69.1284 17.072C68.7017 16.9013 68.2377 16.816 67.7364 16.816C67.235 16.816 66.771 16.9013 66.3444 17.072C65.9284 17.2427 65.5604 17.488 65.2404 17.808C64.9204 18.128 64.6697 18.5067 64.4884 18.944C64.3177 19.3813 64.2324 19.8667 64.2324 20.4C64.2324 20.9227 64.3177 21.408 64.4884 21.856C64.6697 22.2933 64.915 22.672 65.2244 22.992C65.5444 23.312 65.9177 23.5573 66.3444 23.728C66.771 23.8987 67.235 23.984 67.7364 23.984ZM75.9404 26V17.2C75.9404 16.2293 76.2284 15.456 76.8044 14.88C77.3804 14.2933 78.2017 14 79.2684 14C79.631 14 79.9777 14.0373 80.3084 14.112C80.6497 14.1867 80.9377 14.304 81.1724 14.464L80.5164 16.272C80.3777 16.176 80.223 16.1013 80.0524 16.048C79.8817 15.9947 79.7004 15.968 79.5084 15.968C79.1457 15.968 78.863 16.0747 78.6604 16.288C78.4684 16.4907 78.3724 16.8 78.3724 17.216V18.016L78.4364 19.088V26H75.9404ZM74.6124 19.504V17.584H80.5804V19.504H74.6124ZM82.2529 26V17.2C82.2529 16.2293 82.5409 15.456 83.1169 14.88C83.6929 14.2933 84.5142 14 85.5809 14C85.9435 14 86.2902 14.0373 86.6209 14.112C86.9622 14.1867 87.2502 14.304 87.4849 14.464L86.8289 16.272C86.6902 16.176 86.5355 16.1013 86.3649 16.048C86.1942 15.9947 86.0129 15.968 85.8209 15.968C85.4582 15.968 85.1755 16.0747 84.9729 16.288C84.7809 16.4907 84.6849 16.8 84.6849 17.216V18.016L84.7489 19.088V26H82.2529ZM80.9249 19.504V17.584H86.8929V19.504H80.9249Z" fill="white"/>
</svg>
