<svg width="92" height="54" viewBox="0 0 92 54" fill="none" xmlns="http://www.w3.org/2000/svg">
<mask id="path-1-outside-1_1_27" maskUnits="userSpaceOnUse" x="-1" y="-1" width="94" height="56" fill="black">
<rect fill="white" x="-1" y="-1" width="94" height="56"/>
<path d="M16.813 0.151999V10.232C16.813 11.24 17.061 12.016 17.557 12.56C18.053 13.104 18.781 13.376 19.741 13.376C20.701 13.376 21.437 13.104 21.949 12.56C22.461 12.016 22.717 11.24 22.717 10.232V0.151999H26.821V10.208C26.821 11.712 26.501 12.984 25.861 14.024C25.221 15.064 24.357 15.848 23.269 16.376C22.197 16.904 20.997 17.168 19.669 17.168C18.341 17.168 17.149 16.912 16.093 16.4C15.053 15.872 14.229 15.088 13.621 14.048C13.013 12.992 12.709 11.712 12.709 10.208V0.151999H16.813ZM33.8068 5.504C34.2068 4.88 34.7588 4.376 35.4628 3.992C36.1668 3.608 36.9908 3.416 37.9348 3.416C39.0388 3.416 40.0388 3.696 40.9348 4.256C41.8308 4.816 42.5348 5.616 43.0468 6.656C43.5748 7.696 43.8388 8.904 43.8388 10.28C43.8388 11.656 43.5748 12.872 43.0468 13.928C42.5348 14.968 41.8308 15.776 40.9348 16.352C40.0388 16.912 39.0388 17.192 37.9348 17.192C37.0068 17.192 36.1828 17 35.4628 16.616C34.7588 16.232 34.2068 15.736 33.8068 15.128V23.384H29.7028V3.608H33.8068V5.504ZM39.6628 10.28C39.6628 9.256 39.3748 8.456 38.7988 7.88C38.2388 7.288 37.5428 6.992 36.7108 6.992C35.8948 6.992 35.1988 7.288 34.6228 7.88C34.0628 8.472 33.7828 9.28 33.7828 10.304C33.7828 11.328 34.0628 12.136 34.6228 12.728C35.1988 13.32 35.8948 13.616 36.7108 13.616C37.5268 13.616 38.2228 13.32 38.7988 12.728C39.3748 12.12 39.6628 11.304 39.6628 10.28ZM58.5418 13.52V17H56.4538C54.9658 17 53.8058 16.64 52.9738 15.92C52.1418 15.184 51.7258 13.992 51.7258 12.344V7.016H50.0938V3.608H51.7258V0.344H55.8298V3.608H58.5178V7.016H55.8298V12.392C55.8298 12.792 55.9258 13.08 56.1178 13.256C56.3098 13.432 56.6298 13.52 57.0778 13.52H58.5418ZM66.9238 17.192C65.6118 17.192 64.4278 16.912 63.3718 16.352C62.3318 15.792 61.5078 14.992 60.8998 13.952C60.3078 12.912 60.0118 11.696 60.0118 10.304C60.0118 8.928 60.3158 7.72 60.9238 6.68C61.5318 5.624 62.3638 4.816 63.4198 4.256C64.4758 3.696 65.6598 3.416 66.9718 3.416C68.2838 3.416 69.4678 3.696 70.5238 4.256C71.5798 4.816 72.4118 5.624 73.0198 6.68C73.6278 7.72 73.9318 8.928 73.9318 10.304C73.9318 11.68 73.6198 12.896 72.9958 13.952C72.3878 14.992 71.5478 15.792 70.4758 16.352C69.4198 16.912 68.2358 17.192 66.9238 17.192ZM66.9238 13.64C67.7078 13.64 68.3718 13.352 68.9158 12.776C69.4758 12.2 69.7558 11.376 69.7558 10.304C69.7558 9.232 69.4838 8.408 68.9398 7.832C68.4118 7.256 67.7558 6.968 66.9718 6.968C66.1718 6.968 65.5078 7.256 64.9798 7.832C64.4518 8.392 64.1878 9.216 64.1878 10.304C64.1878 11.376 64.4438 12.2 64.9558 12.776C65.4838 13.352 66.1398 13.64 66.9238 13.64ZM8.70884 40.208C8.58084 39.616 8.35684 39.176 8.03684 38.888C7.71684 38.584 7.26084 38.432 6.66884 38.432C5.75684 38.432 5.10084 38.832 4.70084 39.632C4.30084 40.416 4.09284 41.664 4.07684 43.376C4.42884 42.816 4.93284 42.376 5.58884 42.056C6.26084 41.736 6.99684 41.576 7.79684 41.576C9.36484 41.576 10.6208 42.072 11.5648 43.064C12.5248 44.056 13.0048 45.44 13.0048 47.216C13.0048 48.384 12.7648 49.408 12.2848 50.288C11.8208 51.168 11.1328 51.856 10.2208 52.352C9.32484 52.848 8.26084 53.096 7.02884 53.096C4.56484 53.096 2.85284 52.328 1.89284 50.792C0.932844 49.24 0.452844 47.016 0.452844 44.12C0.452844 41.08 0.956844 38.824 1.96484 37.352C2.98884 35.864 4.62084 35.12 6.86084 35.12C8.06084 35.12 9.06884 35.36 9.88484 35.84C10.7168 36.304 11.3408 36.92 11.7568 37.688C12.1888 38.456 12.4448 39.296 12.5248 40.208H8.70884ZM6.81284 44.816C6.12484 44.816 5.54884 45.024 5.08484 45.44C4.63684 45.84 4.41284 46.416 4.41284 47.168C4.41284 47.936 4.62084 48.536 5.03684 48.968C5.46884 49.4 6.07684 49.616 6.86084 49.616C7.56484 49.616 8.11684 49.408 8.51684 48.992C8.93284 48.56 9.14084 47.976 9.14084 47.24C9.14084 46.488 8.94084 45.896 8.54084 45.464C8.14084 45.032 7.56484 44.816 6.81284 44.816ZM15.3261 44C15.3261 41.248 15.8541 39.08 16.9101 37.496C17.9821 35.912 19.7021 35.12 22.0701 35.12C24.4381 35.12 26.1501 35.912 27.2061 37.496C28.2781 39.08 28.8141 41.248 28.8141 44C28.8141 46.784 28.2781 48.968 27.2061 50.552C26.1501 52.136 24.4381 52.928 22.0701 52.928C19.7021 52.928 17.9821 52.136 16.9101 50.552C15.8541 48.968 15.3261 46.784 15.3261 44ZM24.7821 44C24.7821 42.384 24.6061 41.144 24.2541 40.28C23.9021 39.4 23.1741 38.96 22.0701 38.96C20.9661 38.96 20.2381 39.4 19.8861 40.28C19.5341 41.144 19.3581 42.384 19.3581 44C19.3581 45.088 19.4221 45.992 19.5501 46.712C19.6781 47.416 19.9341 47.992 20.3181 48.44C20.7181 48.872 21.3021 49.088 22.0701 49.088C22.8381 49.088 23.4141 48.872 23.7981 48.44C24.1981 47.992 24.4621 47.416 24.5901 46.712C24.7181 45.992 24.7821 45.088 24.7821 44ZM30.6463 39.896C30.6463 38.6 31.0143 37.6 31.7503 36.896C32.5023 36.192 33.4703 35.84 34.6543 35.84C35.8383 35.84 36.7983 36.192 37.5343 36.896C38.2703 37.6 38.6383 38.6 38.6383 39.896C38.6383 41.192 38.2703 42.192 37.5343 42.896C36.7983 43.6 35.8383 43.952 34.6543 43.952C33.4703 43.952 32.5023 43.6 31.7503 42.896C31.0143 42.192 30.6463 41.192 30.6463 39.896ZM46.9423 36.104L37.7023 53H33.7423L42.9823 36.104H46.9423ZM34.6303 38.24C33.8623 38.24 33.4783 38.792 33.4783 39.896C33.4783 40.984 33.8623 41.528 34.6303 41.528C34.9983 41.528 35.2863 41.392 35.4943 41.12C35.7023 40.848 35.8063 40.44 35.8063 39.896C35.8063 38.792 35.4143 38.24 34.6303 38.24ZM42.0703 49.208C42.0703 47.912 42.4383 46.912 43.1743 46.208C43.9103 45.504 44.8703 45.152 46.0543 45.152C47.2383 45.152 48.1983 45.504 48.9343 46.208C49.6703 46.912 50.0383 47.912 50.0383 49.208C50.0383 50.504 49.6703 51.504 48.9343 52.208C48.1983 52.912 47.2383 53.264 46.0543 53.264C44.8703 53.264 43.9103 52.912 43.1743 52.208C42.4383 51.504 42.0703 50.504 42.0703 49.208ZM46.0303 47.552C45.6623 47.552 45.3743 47.688 45.1663 47.96C44.9743 48.232 44.8783 48.648 44.8783 49.208C44.8783 50.296 45.2623 50.84 46.0303 50.84C46.3983 50.84 46.6863 50.704 46.8943 50.432C47.1023 50.16 47.2063 49.752 47.2063 49.208C47.2063 48.664 47.1023 48.256 46.8943 47.984C46.6863 47.696 46.3983 47.552 46.0303 47.552ZM65.3271 53.168C63.7431 53.168 62.2871 52.8 60.9591 52.064C59.6471 51.328 58.5991 50.304 57.8151 48.992C57.0471 47.664 56.6631 46.176 56.6631 44.528C56.6631 42.88 57.0471 41.4 57.8151 40.088C58.5991 38.776 59.6471 37.752 60.9591 37.016C62.2871 36.28 63.7431 35.912 65.3271 35.912C66.9111 35.912 68.3591 36.28 69.6711 37.016C70.9991 37.752 72.0391 38.776 72.7911 40.088C73.5591 41.4 73.9431 42.88 73.9431 44.528C73.9431 46.176 73.5591 47.664 72.7911 48.992C72.0231 50.304 70.9831 51.328 69.6711 52.064C68.3591 52.8 66.9111 53.168 65.3271 53.168ZM65.3271 49.424C66.6711 49.424 67.7431 48.976 68.5431 48.08C69.3591 47.184 69.7671 46 69.7671 44.528C69.7671 43.04 69.3591 41.856 68.5431 40.976C67.7431 40.08 66.6711 39.632 65.3271 39.632C63.9671 39.632 62.8791 40.072 62.0631 40.952C61.2631 41.832 60.8631 43.024 60.8631 44.528C60.8631 46.016 61.2631 47.208 62.0631 48.104C62.8791 48.984 63.9671 49.424 65.3271 49.424ZM82.9463 43.016H80.7383V53H76.6343V43.016H75.1463V39.608H76.6343V39.224C76.6343 37.576 77.1063 36.328 78.0503 35.48C78.9943 34.616 80.3783 34.184 82.2023 34.184C82.5063 34.184 82.7303 34.192 82.8743 34.208V37.688C82.0903 37.64 81.5383 37.752 81.2183 38.024C80.8983 38.296 80.7383 38.784 80.7383 39.488V39.608H82.9463V43.016ZM91.5947 43.016H89.3867V53H85.2827V43.016H83.7947V39.608H85.2827V39.224C85.2827 37.576 85.7547 36.328 86.6987 35.48C87.6427 34.616 89.0267 34.184 90.8507 34.184C91.1547 34.184 91.3787 34.192 91.5227 34.208V37.688C90.7387 37.64 90.1867 37.752 89.8667 38.024C89.5467 38.296 89.3867 38.784 89.3867 39.488V39.608H91.5947V43.016Z"/>
</mask>
<path d="M16.813 0.151999V10.232C16.813 11.24 17.061 12.016 17.557 12.56C18.053 13.104 18.781 13.376 19.741 13.376C20.701 13.376 21.437 13.104 21.949 12.56C22.461 12.016 22.717 11.24 22.717 10.232V0.151999H26.821V10.208C26.821 11.712 26.501 12.984 25.861 14.024C25.221 15.064 24.357 15.848 23.269 16.376C22.197 16.904 20.997 17.168 19.669 17.168C18.341 17.168 17.149 16.912 16.093 16.4C15.053 15.872 14.229 15.088 13.621 14.048C13.013 12.992 12.709 11.712 12.709 10.208V0.151999H16.813ZM33.8068 5.504C34.2068 4.88 34.7588 4.376 35.4628 3.992C36.1668 3.608 36.9908 3.416 37.9348 3.416C39.0388 3.416 40.0388 3.696 40.9348 4.256C41.8308 4.816 42.5348 5.616 43.0468 6.656C43.5748 7.696 43.8388 8.904 43.8388 10.28C43.8388 11.656 43.5748 12.872 43.0468 13.928C42.5348 14.968 41.8308 15.776 40.9348 16.352C40.0388 16.912 39.0388 17.192 37.9348 17.192C37.0068 17.192 36.1828 17 35.4628 16.616C34.7588 16.232 34.2068 15.736 33.8068 15.128V23.384H29.7028V3.608H33.8068V5.504ZM39.6628 10.28C39.6628 9.256 39.3748 8.456 38.7988 7.88C38.2388 7.288 37.5428 6.992 36.7108 6.992C35.8948 6.992 35.1988 7.288 34.6228 7.88C34.0628 8.472 33.7828 9.28 33.7828 10.304C33.7828 11.328 34.0628 12.136 34.6228 12.728C35.1988 13.32 35.8948 13.616 36.7108 13.616C37.5268 13.616 38.2228 13.32 38.7988 12.728C39.3748 12.12 39.6628 11.304 39.6628 10.28ZM58.5418 13.52V17H56.4538C54.9658 17 53.8058 16.64 52.9738 15.92C52.1418 15.184 51.7258 13.992 51.7258 12.344V7.016H50.0938V3.608H51.7258V0.344H55.8298V3.608H58.5178V7.016H55.8298V12.392C55.8298 12.792 55.9258 13.08 56.1178 13.256C56.3098 13.432 56.6298 13.52 57.0778 13.52H58.5418ZM66.9238 17.192C65.6118 17.192 64.4278 16.912 63.3718 16.352C62.3318 15.792 61.5078 14.992 60.8998 13.952C60.3078 12.912 60.0118 11.696 60.0118 10.304C60.0118 8.928 60.3158 7.72 60.9238 6.68C61.5318 5.624 62.3638 4.816 63.4198 4.256C64.4758 3.696 65.6598 3.416 66.9718 3.416C68.2838 3.416 69.4678 3.696 70.5238 4.256C71.5798 4.816 72.4118 5.624 73.0198 6.68C73.6278 7.72 73.9318 8.928 73.9318 10.304C73.9318 11.68 73.6198 12.896 72.9958 13.952C72.3878 14.992 71.5478 15.792 70.4758 16.352C69.4198 16.912 68.2358 17.192 66.9238 17.192ZM66.9238 13.64C67.7078 13.64 68.3718 13.352 68.9158 12.776C69.4758 12.2 69.7558 11.376 69.7558 10.304C69.7558 9.232 69.4838 8.408 68.9398 7.832C68.4118 7.256 67.7558 6.968 66.9718 6.968C66.1718 6.968 65.5078 7.256 64.9798 7.832C64.4518 8.392 64.1878 9.216 64.1878 10.304C64.1878 11.376 64.4438 12.2 64.9558 12.776C65.4838 13.352 66.1398 13.64 66.9238 13.64ZM8.70884 40.208C8.58084 39.616 8.35684 39.176 8.03684 38.888C7.71684 38.584 7.26084 38.432 6.66884 38.432C5.75684 38.432 5.10084 38.832 4.70084 39.632C4.30084 40.416 4.09284 41.664 4.07684 43.376C4.42884 42.816 4.93284 42.376 5.58884 42.056C6.26084 41.736 6.99684 41.576 7.79684 41.576C9.36484 41.576 10.6208 42.072 11.5648 43.064C12.5248 44.056 13.0048 45.44 13.0048 47.216C13.0048 48.384 12.7648 49.408 12.2848 50.288C11.8208 51.168 11.1328 51.856 10.2208 52.352C9.32484 52.848 8.26084 53.096 7.02884 53.096C4.56484 53.096 2.85284 52.328 1.89284 50.792C0.932844 49.24 0.452844 47.016 0.452844 44.12C0.452844 41.08 0.956844 38.824 1.96484 37.352C2.98884 35.864 4.62084 35.12 6.86084 35.12C8.06084 35.12 9.06884 35.36 9.88484 35.84C10.7168 36.304 11.3408 36.92 11.7568 37.688C12.1888 38.456 12.4448 39.296 12.5248 40.208H8.70884ZM6.81284 44.816C6.12484 44.816 5.54884 45.024 5.08484 45.44C4.63684 45.84 4.41284 46.416 4.41284 47.168C4.41284 47.936 4.62084 48.536 5.03684 48.968C5.46884 49.4 6.07684 49.616 6.86084 49.616C7.56484 49.616 8.11684 49.408 8.51684 48.992C8.93284 48.56 9.14084 47.976 9.14084 47.24C9.14084 46.488 8.94084 45.896 8.54084 45.464C8.14084 45.032 7.56484 44.816 6.81284 44.816ZM15.3261 44C15.3261 41.248 15.8541 39.08 16.9101 37.496C17.9821 35.912 19.7021 35.12 22.0701 35.12C24.4381 35.12 26.1501 35.912 27.2061 37.496C28.2781 39.08 28.8141 41.248 28.8141 44C28.8141 46.784 28.2781 48.968 27.2061 50.552C26.1501 52.136 24.4381 52.928 22.0701 52.928C19.7021 52.928 17.9821 52.136 16.9101 50.552C15.8541 48.968 15.3261 46.784 15.3261 44ZM24.7821 44C24.7821 42.384 24.6061 41.144 24.2541 40.28C23.9021 39.4 23.1741 38.96 22.0701 38.96C20.9661 38.96 20.2381 39.4 19.8861 40.28C19.5341 41.144 19.3581 42.384 19.3581 44C19.3581 45.088 19.4221 45.992 19.5501 46.712C19.6781 47.416 19.9341 47.992 20.3181 48.44C20.7181 48.872 21.3021 49.088 22.0701 49.088C22.8381 49.088 23.4141 48.872 23.7981 48.44C24.1981 47.992 24.4621 47.416 24.5901 46.712C24.7181 45.992 24.7821 45.088 24.7821 44ZM30.6463 39.896C30.6463 38.6 31.0143 37.6 31.7503 36.896C32.5023 36.192 33.4703 35.84 34.6543 35.84C35.8383 35.84 36.7983 36.192 37.5343 36.896C38.2703 37.6 38.6383 38.6 38.6383 39.896C38.6383 41.192 38.2703 42.192 37.5343 42.896C36.7983 43.6 35.8383 43.952 34.6543 43.952C33.4703 43.952 32.5023 43.6 31.7503 42.896C31.0143 42.192 30.6463 41.192 30.6463 39.896ZM46.9423 36.104L37.7023 53H33.7423L42.9823 36.104H46.9423ZM34.6303 38.24C33.8623 38.24 33.4783 38.792 33.4783 39.896C33.4783 40.984 33.8623 41.528 34.6303 41.528C34.9983 41.528 35.2863 41.392 35.4943 41.12C35.7023 40.848 35.8063 40.44 35.8063 39.896C35.8063 38.792 35.4143 38.24 34.6303 38.24ZM42.0703 49.208C42.0703 47.912 42.4383 46.912 43.1743 46.208C43.9103 45.504 44.8703 45.152 46.0543 45.152C47.2383 45.152 48.1983 45.504 48.9343 46.208C49.6703 46.912 50.0383 47.912 50.0383 49.208C50.0383 50.504 49.6703 51.504 48.9343 52.208C48.1983 52.912 47.2383 53.264 46.0543 53.264C44.8703 53.264 43.9103 52.912 43.1743 52.208C42.4383 51.504 42.0703 50.504 42.0703 49.208ZM46.0303 47.552C45.6623 47.552 45.3743 47.688 45.1663 47.96C44.9743 48.232 44.8783 48.648 44.8783 49.208C44.8783 50.296 45.2623 50.84 46.0303 50.84C46.3983 50.84 46.6863 50.704 46.8943 50.432C47.1023 50.16 47.2063 49.752 47.2063 49.208C47.2063 48.664 47.1023 48.256 46.8943 47.984C46.6863 47.696 46.3983 47.552 46.0303 47.552ZM65.3271 53.168C63.7431 53.168 62.2871 52.8 60.9591 52.064C59.6471 51.328 58.5991 50.304 57.8151 48.992C57.0471 47.664 56.6631 46.176 56.6631 44.528C56.6631 42.88 57.0471 41.4 57.8151 40.088C58.5991 38.776 59.6471 37.752 60.9591 37.016C62.2871 36.28 63.7431 35.912 65.3271 35.912C66.9111 35.912 68.3591 36.28 69.6711 37.016C70.9991 37.752 72.0391 38.776 72.7911 40.088C73.5591 41.4 73.9431 42.88 73.9431 44.528C73.9431 46.176 73.5591 47.664 72.7911 48.992C72.0231 50.304 70.9831 51.328 69.6711 52.064C68.3591 52.8 66.9111 53.168 65.3271 53.168ZM65.3271 49.424C66.6711 49.424 67.7431 48.976 68.5431 48.08C69.3591 47.184 69.7671 46 69.7671 44.528C69.7671 43.04 69.3591 41.856 68.5431 40.976C67.7431 40.08 66.6711 39.632 65.3271 39.632C63.9671 39.632 62.8791 40.072 62.0631 40.952C61.2631 41.832 60.8631 43.024 60.8631 44.528C60.8631 46.016 61.2631 47.208 62.0631 48.104C62.8791 48.984 63.9671 49.424 65.3271 49.424ZM82.9463 43.016H80.7383V53H76.6343V43.016H75.1463V39.608H76.6343V39.224C76.6343 37.576 77.1063 36.328 78.0503 35.48C78.9943 34.616 80.3783 34.184 82.2023 34.184C82.5063 34.184 82.7303 34.192 82.8743 34.208V37.688C82.0903 37.64 81.5383 37.752 81.2183 38.024C80.8983 38.296 80.7383 38.784 80.7383 39.488V39.608H82.9463V43.016ZM91.5947 43.016H89.3867V53H85.2827V43.016H83.7947V39.608H85.2827V39.224C85.2827 37.576 85.7547 36.328 86.6987 35.48C87.6427 34.616 89.0267 34.184 90.8507 34.184C91.1547 34.184 91.3787 34.192 91.5227 34.208V37.688C90.7387 37.64 90.1867 37.752 89.8667 38.024C89.5467 38.296 89.3867 38.784 89.3867 39.488V39.608H91.5947V43.016Z" fill="white"/>
<path d="M16.813 0.151999H17.813V-0.848001H16.813V0.151999ZM17.557 12.56L16.818 13.2338L16.818 13.2338L17.557 12.56ZM21.949 12.56L22.6772 13.2454L22.6772 13.2454L21.949 12.56ZM22.717 0.151999V-0.848001H21.717V0.151999H22.717ZM26.821 0.151999H27.821V-0.848001H26.821V0.151999ZM25.861 14.024L26.7126 14.5481L26.7126 14.5481L25.861 14.024ZM23.269 16.376L22.8324 15.4763L22.8271 15.4789L23.269 16.376ZM16.093 16.4L15.6403 17.2917L15.6484 17.2958L15.6567 17.2998L16.093 16.4ZM13.621 14.048L12.7543 14.547L12.7577 14.5527L13.621 14.048ZM12.709 0.151999V-0.848001H11.709V0.151999H12.709ZM15.813 0.151999V10.232H17.813V0.151999H15.813ZM15.813 10.232C15.813 11.3964 16.1005 12.4468 16.818 13.2338L18.2959 11.8862C18.0214 11.5852 17.813 11.0836 17.813 10.232H15.813ZM16.818 13.2338C17.5568 14.0441 18.5901 14.376 19.741 14.376V12.376C18.9718 12.376 18.5491 12.1639 18.2959 11.8862L16.818 13.2338ZM19.741 14.376C20.8937 14.376 21.926 14.0435 22.6772 13.2454L21.2208 11.8746C20.948 12.1645 20.5083 12.376 19.741 12.376V14.376ZM22.6772 13.2454C23.4173 12.459 23.717 11.404 23.717 10.232H21.717C21.717 11.076 21.5046 11.573 21.2208 11.8746L22.6772 13.2454ZM23.717 10.232V0.151999H21.717V10.232H23.717ZM22.717 1.152H26.821V-0.848001H22.717V1.152ZM25.821 0.151999V10.208H27.821V0.151999H25.821ZM25.821 10.208C25.821 11.5697 25.5321 12.6504 25.0093 13.4999L26.7126 14.5481C27.4698 13.3176 27.821 11.8543 27.821 10.208H25.821ZM25.0093 13.4999C24.4681 14.3794 23.7473 15.0323 22.8324 15.4763L23.7056 17.2757C24.9666 16.6637 25.9739 15.7486 26.7126 14.5481L25.0093 13.4999ZM22.8271 15.4789C21.9073 15.932 20.861 16.168 19.669 16.168V18.168C21.1329 18.168 22.4867 17.876 23.7108 17.2731L22.8271 15.4789ZM19.669 16.168C18.4721 16.168 17.4323 15.9381 16.5292 15.5002L15.6567 17.2998C16.8656 17.8859 18.2098 18.168 19.669 18.168V16.168ZM16.5457 15.5083C15.6827 15.0702 14.9987 14.4233 14.4843 13.5433L12.7577 14.5527C13.4592 15.7527 14.4233 16.6738 15.6403 17.2917L16.5457 15.5083ZM14.4876 13.549C13.9853 12.6766 13.709 11.5776 13.709 10.208H11.709C11.709 11.8464 12.0407 13.3074 12.7543 14.547L14.4876 13.549ZM13.709 10.208V0.151999H11.709V10.208H13.709ZM12.709 1.152H16.813V-0.848001H12.709V1.152ZM33.8068 5.504H32.8068V8.91699L34.6487 6.04367L33.8068 5.504ZM35.4628 3.992L34.984 3.1141L34.984 3.1141L35.4628 3.992ZM40.9348 4.256L40.4048 5.104L40.4048 5.104L40.9348 4.256ZM43.0468 6.656L42.1496 7.09772L42.1552 7.10869L43.0468 6.656ZM43.0468 13.928L42.1524 13.4808L42.1497 13.4863L43.0468 13.928ZM40.9348 16.352L41.4649 17.2001L41.4756 17.1932L40.9348 16.352ZM35.4628 16.616L34.984 17.4939L34.9923 17.4984L35.4628 16.616ZM33.8068 15.128L34.6423 14.5784L32.8068 11.7886V15.128H33.8068ZM33.8068 23.384V24.384H34.8068V23.384H33.8068ZM29.7028 23.384H28.7028V24.384H29.7028V23.384ZM29.7028 3.608V2.608H28.7028V3.608H29.7028ZM33.8068 3.608H34.8068V2.608H33.8068V3.608ZM38.7988 7.88L38.0724 8.5672L38.0819 8.57729L38.0917 8.58711L38.7988 7.88ZM34.6228 7.88L33.906 7.18258L33.8964 7.1928L34.6228 7.88ZM34.6228 12.728L33.8963 13.4153L33.9061 13.4254L34.6228 12.728ZM38.7988 12.728L39.5156 13.4254L39.5248 13.4157L38.7988 12.728ZM34.6487 6.04367C34.9507 5.57256 35.3728 5.18021 35.9417 4.86989L34.984 3.1141C34.1449 3.57179 33.463 4.18744 32.965 4.96433L34.6487 6.04367ZM35.9417 4.86989C36.4748 4.57913 37.1285 4.416 37.9348 4.416V2.416C36.8532 2.416 35.8589 2.63687 34.984 3.1141L35.9417 4.86989ZM37.9348 4.416C38.8602 4.416 39.6751 4.6479 40.4048 5.104L41.4648 3.408C40.4026 2.74409 39.2174 2.416 37.9348 2.416V4.416ZM40.4048 5.104C41.1279 5.5559 41.7116 6.20788 42.1497 7.09768L43.944 6.21432C43.3581 5.02412 42.5338 4.0761 41.4648 3.408L40.4048 5.104ZM42.1552 7.10869C42.6002 7.98529 42.8388 9.03315 42.8388 10.28H44.8388C44.8388 8.77485 44.5495 7.40671 43.9385 6.20331L42.1552 7.10869ZM42.8388 10.28C42.8388 11.5264 42.6004 12.5849 42.1524 13.4808L43.9413 14.3752C44.5493 13.1591 44.8388 11.7856 44.8388 10.28H42.8388ZM42.1497 13.4863C41.7106 14.3781 41.1238 15.0417 40.3941 15.5108L41.4756 17.1932C42.5379 16.5103 43.3591 15.5579 43.944 14.3697L42.1497 13.4863ZM40.4048 15.504C39.6751 15.9601 38.8602 16.192 37.9348 16.192V18.192C39.2174 18.192 40.4026 17.8639 41.4648 17.2L40.4048 15.504ZM37.9348 16.192C37.1482 16.192 36.4898 16.0304 35.9334 15.7336L34.9923 17.4984C35.8759 17.9696 36.8655 18.192 37.9348 18.192V16.192ZM35.9417 15.7381C35.3667 15.4245 34.9432 15.0358 34.6423 14.5784L32.9714 15.6776C33.4705 16.4362 34.151 17.0395 34.984 17.4939L35.9417 15.7381ZM32.8068 15.128V23.384H34.8068V15.128H32.8068ZM33.8068 22.384H29.7028V24.384H33.8068V22.384ZM30.7028 23.384V3.608H28.7028V23.384H30.7028ZM29.7028 4.608H33.8068V2.608H29.7028V4.608ZM32.8068 3.608V5.504H34.8068V3.608H32.8068ZM40.6628 10.28C40.6628 9.06267 40.3148 7.98178 39.506 7.17289L38.0917 8.58711C38.4348 8.93022 38.6628 9.44933 38.6628 10.28H40.6628ZM39.5253 7.1928C38.772 6.39644 37.8112 5.992 36.7108 5.992V7.992C37.2745 7.992 37.7057 8.17956 38.0724 8.5672L39.5253 7.1928ZM36.7108 5.992C35.6212 5.992 34.6678 6.39982 33.9061 7.18264L35.3396 8.57735C35.7299 8.17618 36.1685 7.992 36.7108 7.992V5.992ZM33.8964 7.1928C33.1187 8.01495 32.7828 9.09297 32.7828 10.304H34.7828C34.7828 9.46703 35.007 8.92905 35.3493 8.5672L33.8964 7.1928ZM32.7828 10.304C32.7828 11.515 33.1187 12.5931 33.8964 13.4152L35.3493 12.0408C35.007 11.6789 34.7828 11.141 34.7828 10.304H32.7828ZM33.9061 13.4254C34.6678 14.2082 35.6212 14.616 36.7108 14.616V12.616C36.1685 12.616 35.7299 12.4318 35.3396 12.0306L33.9061 13.4254ZM36.7108 14.616C37.8005 14.616 38.7539 14.2082 39.5156 13.4254L38.0821 12.0306C37.6918 12.4318 37.2532 12.616 36.7108 12.616V14.616ZM39.5248 13.4157C40.3142 12.5825 40.6628 11.4998 40.6628 10.28H38.6628C38.6628 11.1082 38.4355 11.6575 38.0729 12.0403L39.5248 13.4157ZM58.5418 13.52H59.5418V12.52H58.5418V13.52ZM58.5418 17V18H59.5418V17H58.5418ZM52.9738 15.92L52.3112 16.669L52.3195 16.6762L52.9738 15.92ZM51.7258 7.016H52.7258V6.016H51.7258V7.016ZM50.0938 7.016H49.0938V8.016H50.0938V7.016ZM50.0938 3.608V2.608H49.0938V3.608H50.0938ZM51.7258 3.608V4.608H52.7258V3.608H51.7258ZM51.7258 0.344V-0.656H50.7258V0.344H51.7258ZM55.8298 0.344H56.8298V-0.656H55.8298V0.344ZM55.8298 3.608H54.8298V4.608H55.8298V3.608ZM58.5178 3.608H59.5178V2.608H58.5178V3.608ZM58.5178 7.016V8.016H59.5178V7.016H58.5178ZM55.8298 7.016V6.016H54.8298V7.016H55.8298ZM56.1178 13.256L55.4421 13.9932L55.4421 13.9932L56.1178 13.256ZM57.5418 13.52V17H59.5418V13.52H57.5418ZM58.5418 16H56.4538V18H58.5418V16ZM56.4538 16C55.121 16 54.223 15.6786 53.6282 15.1638L52.3195 16.6762C53.3887 17.6014 54.8107 18 56.4538 18V16ZM53.6364 15.171C53.1054 14.7013 52.7258 13.8457 52.7258 12.344H50.7258C50.7258 14.1383 51.1783 15.6667 52.3113 16.669L53.6364 15.171ZM52.7258 12.344V7.016H50.7258V12.344H52.7258ZM51.7258 6.016H50.0938V8.016H51.7258V6.016ZM51.0938 7.016V3.608H49.0938V7.016H51.0938ZM50.0938 4.608H51.7258V2.608H50.0938V4.608ZM52.7258 3.608V0.344H50.7258V3.608H52.7258ZM51.7258 1.344H55.8298V-0.656H51.7258V1.344ZM54.8298 0.344V3.608H56.8298V0.344H54.8298ZM55.8298 4.608H58.5178V2.608H55.8298V4.608ZM57.5178 3.608V7.016H59.5178V3.608H57.5178ZM58.5178 6.016H55.8298V8.016H58.5178V6.016ZM54.8298 7.016V12.392H56.8298V7.016H54.8298ZM54.8298 12.392C54.8298 12.9233 54.9546 13.5463 55.4421 13.9932L56.7936 12.5188C56.816 12.5394 56.8317 12.5599 56.8415 12.5756C56.8509 12.5908 56.8526 12.5979 56.8505 12.5918C56.8454 12.5763 56.8298 12.5166 56.8298 12.392H54.8298ZM55.4421 13.9932C55.9123 14.4242 56.5455 14.52 57.0778 14.52V12.52C56.9144 12.52 56.8165 12.5034 56.767 12.4898C56.7191 12.4766 56.745 12.4743 56.7936 12.5188L55.4421 13.9932ZM57.0778 14.52H58.5418V12.52H57.0778V14.52ZM63.3718 16.352L62.8977 17.2325L62.9033 17.2355L63.3718 16.352ZM60.8998 13.952L60.0307 14.4467L60.0365 14.4567L60.8998 13.952ZM60.9238 6.68L61.7872 7.18471L61.7905 7.17896L60.9238 6.68ZM63.4198 4.256L63.8883 5.13946L63.8883 5.13946L63.4198 4.256ZM70.5238 4.256L70.0553 5.13946L70.0553 5.13946L70.5238 4.256ZM73.0198 6.68L72.1532 7.17898L72.1565 7.1847L73.0198 6.68ZM72.9958 13.952L72.1349 13.4433L72.1325 13.4473L72.9958 13.952ZM70.4758 16.352L70.0128 15.4656L70.0073 15.4685L70.4758 16.352ZM68.9158 12.776L68.1988 12.0789L68.1938 12.0841L68.1888 12.0894L68.9158 12.776ZM68.9398 7.832L68.2027 8.50772L68.2077 8.51321L68.2128 8.51862L68.9398 7.832ZM64.9798 7.832L65.7075 8.51808L65.717 8.50772L64.9798 7.832ZM64.9558 12.776L64.2084 13.4404L64.2135 13.4461L64.2187 13.4517L64.9558 12.776ZM66.9238 16.192C65.7589 16.192 64.7383 15.9447 63.8403 15.4685L62.9033 17.2355C64.1174 17.8793 65.4648 18.192 66.9238 18.192V16.192ZM63.8459 15.4715C62.9711 15.0005 62.2803 14.332 61.7631 13.4473L60.0365 14.4567C60.7353 15.652 61.6926 16.5835 62.8977 17.2325L63.8459 15.4715ZM61.7689 13.4573C61.2758 12.5911 61.0118 11.5511 61.0118 10.304H59.0118C59.0118 11.8409 59.3399 13.2329 60.0308 14.4467L61.7689 13.4573ZM61.0118 10.304C61.0118 9.07972 61.2808 8.05084 61.7871 7.1847L60.0605 6.1753C59.3509 7.38916 59.0118 8.77628 59.0118 10.304H61.0118ZM61.7905 7.17896C62.3065 6.28269 63.002 5.60951 63.8883 5.13946L62.9513 3.37254C61.7257 4.02249 60.7572 4.96531 60.0572 6.18104L61.7905 7.17896ZM63.8883 5.13946C64.7863 4.66327 65.8069 4.416 66.9718 4.416V2.416C65.5128 2.416 64.1654 2.72873 62.9513 3.37254L63.8883 5.13946ZM66.9718 4.416C68.1368 4.416 69.1574 4.66327 70.0553 5.13946L70.9923 3.37254C69.7783 2.72873 68.4309 2.416 66.9718 2.416V4.416ZM70.0553 5.13946C70.9417 5.60951 71.6372 6.28269 72.1532 7.17896L73.8865 6.18104C73.1865 4.96531 72.218 4.02249 70.9923 3.37254L70.0553 5.13946ZM72.1565 7.1847C72.6629 8.05084 72.9318 9.07972 72.9318 10.304H74.9318C74.9318 8.77628 74.5928 7.38916 73.8831 6.1753L72.1565 7.1847ZM72.9318 10.304C72.9318 11.5233 72.6572 12.5595 72.1349 13.4433L73.8568 14.4607C74.5825 13.2325 74.9318 11.8367 74.9318 10.304H72.9318ZM72.1325 13.4473C71.6198 14.3243 70.9189 14.9923 70.0128 15.4657L70.9389 17.2383C72.1768 16.5917 73.1558 15.6597 73.8591 14.4567L72.1325 13.4473ZM70.0073 15.4685C69.1094 15.9447 68.0888 16.192 66.9238 16.192V18.192C68.3829 18.192 69.7303 17.8793 70.9443 17.2355L70.0073 15.4685ZM66.9238 14.64C67.9863 14.64 68.9122 14.2362 69.6429 13.4626L68.1888 12.0894C67.8315 12.4678 67.4294 12.64 66.9238 12.64V14.64ZM69.6328 13.4731C70.4284 12.6548 70.7558 11.5468 70.7558 10.304H68.7558C68.7558 11.2052 68.5233 11.7452 68.1988 12.0789L69.6328 13.4731ZM70.7558 10.304C70.7558 9.06851 70.4404 7.96447 69.6669 7.14538L68.2128 8.51862C68.5272 8.85153 68.7558 9.39549 68.7558 10.304H70.7558ZM69.677 7.15627C68.9589 6.37286 68.0351 5.968 66.9718 5.968V7.968C67.4766 7.968 67.8648 8.13914 68.2027 8.50772L69.677 7.15627ZM66.9718 5.968C65.8991 5.968 64.9652 6.36812 64.2427 7.15627L65.717 8.50772C66.0505 8.14388 66.4446 7.968 66.9718 7.968V5.968ZM64.2523 7.14599C63.4882 7.95635 63.1878 9.06669 63.1878 10.304H65.1878C65.1878 9.36531 65.4155 8.82765 65.7074 8.51801L64.2523 7.14599ZM63.1878 10.304C63.1878 11.5252 63.4797 12.6206 64.2084 13.4404L65.7033 12.1116C65.408 11.7794 65.1878 11.2268 65.1878 10.304H63.1878ZM64.2187 13.4517C64.9368 14.2351 65.8606 14.64 66.9238 14.64V12.64C66.4191 12.64 66.0309 12.4689 65.693 12.1003L64.2187 13.4517ZM8.70884 40.208L7.73143 40.4193L7.90195 41.208H8.70884V40.208ZM8.03684 38.888L7.34809 39.613L7.35786 39.6223L7.36788 39.6313L8.03684 38.888ZM4.70084 39.632L5.59164 40.0865L5.59527 40.0792L4.70084 39.632ZM4.07684 43.376L3.07689 43.3667L3.04388 46.8984L4.92348 43.9082L4.07684 43.376ZM5.58884 42.056L5.15889 41.1531L5.15042 41.1572L5.58884 42.056ZM11.5648 43.064L10.8404 43.7534L10.8462 43.7594L11.5648 43.064ZM12.2848 50.288L11.4069 49.8091L11.4003 49.8216L12.2848 50.288ZM10.2208 52.352L9.74306 51.4735L9.73653 51.4771L10.2208 52.352ZM1.89284 50.792L1.04238 51.3181L1.04485 51.322L1.89284 50.792ZM1.96484 37.352L1.14106 36.7851L1.13976 36.787L1.96484 37.352ZM9.88484 35.84L9.37782 36.7019L9.38773 36.7078L9.39778 36.7134L9.88484 35.84ZM11.7568 37.688L10.8776 38.1643L10.8814 38.1713L10.8853 38.1783L11.7568 37.688ZM12.5248 40.208V41.208H13.6164L13.521 40.1206L12.5248 40.208ZM5.08484 45.44L5.75086 46.1859L5.75239 46.1846L5.08484 45.44ZM5.03684 48.968L4.31652 49.6616L4.32307 49.6684L4.32974 49.6751L5.03684 48.968ZM8.51684 48.992L7.79652 48.2984L7.79601 48.2989L8.51684 48.992ZM9.68626 39.9967C9.53138 39.2804 9.23395 38.62 8.70581 38.1447L7.36788 39.6313C7.47974 39.732 7.63031 39.9516 7.73143 40.4193L9.68626 39.9967ZM8.72559 38.163C8.16368 37.6292 7.4277 37.432 6.66884 37.432V39.432C7.09398 39.432 7.27001 39.5388 7.34809 39.613L8.72559 38.163ZM6.66884 37.432C6.06384 37.432 5.48422 37.566 4.97224 37.8782C4.45911 38.1911 4.07636 38.6449 3.80642 39.1848L5.59527 40.0792C5.72533 39.8191 5.87058 39.6729 6.01345 39.5858C6.15747 39.498 6.36185 39.432 6.66884 39.432V37.432ZM3.81008 39.1775C3.30033 40.1766 3.09322 41.6196 3.07689 43.3667L5.0768 43.3853C5.09247 41.7084 5.30136 40.6554 5.59161 40.0865L3.81008 39.1775ZM4.92348 43.9082C5.16615 43.5221 5.52094 43.2018 6.02727 42.9548L5.15042 41.1572C4.34475 41.5502 3.69154 42.1099 3.23021 42.8438L4.92348 43.9082ZM6.01878 42.9589C6.5466 42.7075 7.13426 42.576 7.79684 42.576V40.576C6.85943 40.576 5.97509 40.7645 5.15891 41.1531L6.01878 42.9589ZM7.79684 42.576C9.1345 42.576 10.1132 42.9892 10.8404 43.7534L12.2893 42.3746C11.1285 41.1548 9.59519 40.576 7.79684 40.576V42.576ZM10.8462 43.7594C11.5783 44.5158 12.0048 45.6221 12.0048 47.216H14.0048C14.0048 45.2579 13.4714 43.5962 12.2834 42.3686L10.8462 43.7594ZM12.0048 47.216C12.0048 48.2445 11.7945 49.0986 11.4069 49.8091L13.1627 50.7669C13.7352 49.7174 14.0048 48.5235 14.0048 47.216H12.0048ZM11.4003 49.8216C11.0324 50.5193 10.4898 51.0674 9.74307 51.4735L10.6986 53.2305C11.7759 52.6446 12.6093 51.8167 13.1694 50.7544L11.4003 49.8216ZM9.73653 51.4771C9.01611 51.8759 8.12569 52.096 7.02884 52.096V54.096C8.396 54.096 9.63358 53.8201 10.7052 53.2269L9.73653 51.4771ZM7.02884 52.096C4.77132 52.096 3.45518 51.4049 2.74084 50.262L1.04485 51.322C2.25051 53.2511 4.35837 54.096 7.02884 54.096V52.096ZM2.7433 50.2659C1.92267 48.9393 1.45284 46.9295 1.45284 44.12H-0.547156C-0.547156 47.1025 -0.0569858 49.5407 1.04239 51.3181L2.7433 50.2659ZM1.45284 44.12C1.45284 41.155 1.95099 39.1421 2.78993 37.917L1.13976 36.787C-0.0373062 38.5059 -0.547156 41.005 -0.547156 44.12H1.45284ZM2.78863 37.9189C3.58057 36.7681 4.86069 36.12 6.86084 36.12V34.12C4.381 34.12 2.39712 34.9599 1.14106 36.7851L2.78863 37.9189ZM6.86084 36.12C7.92955 36.12 8.75149 36.3335 9.37782 36.7019L10.3919 34.9781C9.38619 34.3865 8.19214 34.12 6.86084 34.12V36.12ZM9.39778 36.7134C10.0796 37.0936 10.5601 37.5782 10.8776 38.1643L12.6361 37.2117C12.1216 36.2618 11.3541 35.5144 10.3719 34.9666L9.39778 36.7134ZM10.8853 38.1783C11.2448 38.8175 11.4606 39.5193 11.5287 40.2954L13.521 40.1206C13.4291 39.0726 13.1328 38.0945 12.6284 37.1977L10.8853 38.1783ZM12.5248 39.208H8.70884V41.208H12.5248V39.208ZM6.81284 43.816C5.90613 43.816 5.08436 44.0974 4.4173 44.6954L5.75239 46.1846C6.01333 45.9506 6.34356 45.816 6.81284 45.816V43.816ZM4.41883 44.6941C3.70684 45.3298 3.41284 46.2084 3.41284 47.168H5.41284C5.41284 46.6236 5.56685 46.3502 5.75086 46.1859L4.41883 44.6941ZM3.41284 47.168C3.41284 48.1191 3.67472 48.9952 4.31652 49.6616L5.75716 48.2744C5.56697 48.0768 5.41284 47.7529 5.41284 47.168H3.41284ZM4.32974 49.6751C4.9984 50.3438 5.89028 50.616 6.86084 50.616V48.616C6.2634 48.616 5.93929 48.4562 5.74395 48.2609L4.32974 49.6751ZM6.86084 50.616C7.77278 50.616 8.60892 50.339 9.23768 49.6851L7.79601 48.2989C7.62477 48.477 7.3569 48.616 6.86084 48.616V50.616ZM9.23716 49.6856C9.87149 49.0269 10.1408 48.1726 10.1408 47.24H8.14084C8.14084 47.7794 7.9942 48.0931 7.79652 48.2984L9.23716 49.6856ZM10.1408 47.24C10.1408 46.3085 9.88931 45.4485 9.2746 44.7846L7.80708 46.1434C7.99238 46.3435 8.14084 46.6675 8.14084 47.24H10.1408ZM9.2746 44.7846C8.63602 44.0949 7.76141 43.816 6.81284 43.816V45.816C7.36828 45.816 7.64566 45.9691 7.80708 46.1434L9.2746 44.7846ZM16.9101 37.496L16.0819 36.9355L16.078 36.9413L16.9101 37.496ZM27.2061 37.496L26.374 38.0507L26.3779 38.0565L27.2061 37.496ZM27.2061 50.552L26.3779 49.9915L26.374 49.9973L27.2061 50.552ZM16.9101 50.552L16.078 51.1067L16.0819 51.1125L16.9101 50.552ZM24.2541 40.28L23.3256 40.6514L23.328 40.6573L24.2541 40.28ZM19.8861 40.28L20.8122 40.6573L20.8146 40.6514L19.8861 40.28ZM19.5501 46.712L18.5655 46.887L18.5662 46.8909L19.5501 46.712ZM20.3181 48.44L19.5588 49.0908L19.5713 49.1053L19.5843 49.1194L20.3181 48.44ZM23.7981 48.44L23.0522 47.774L23.0507 47.7756L23.7981 48.44ZM24.5901 46.712L25.574 46.8909L25.5747 46.887L24.5901 46.712ZM16.3261 44C16.3261 41.3617 16.8343 39.4124 17.7421 38.0507L16.078 36.9413C14.8738 38.7476 14.3261 41.1343 14.3261 44H16.3261ZM17.7383 38.0565C18.5791 36.8141 19.9444 36.12 22.0701 36.12V34.12C19.4598 34.12 17.3851 35.0099 16.0819 36.9355L17.7383 38.0565ZM22.0701 36.12C24.1963 36.12 25.5496 36.814 26.374 38.0507L28.0381 36.9413C26.7506 35.01 24.6799 34.12 22.0701 34.12V36.12ZM26.3779 38.0565C27.2988 39.4171 27.8141 41.3641 27.8141 44H29.8141C29.8141 41.1319 29.2574 38.7429 28.0343 36.9355L26.3779 38.0565ZM27.8141 44C27.8141 46.6707 27.2977 48.6325 26.3779 49.9915L28.0343 51.1125C29.2585 49.3035 29.8141 46.8973 29.8141 44H27.8141ZM26.374 49.9973C25.5496 51.234 24.1963 51.928 22.0701 51.928V53.928C24.6799 53.928 26.7506 53.038 28.0381 51.1067L26.374 49.9973ZM22.0701 51.928C19.9444 51.928 18.5791 51.2339 17.7383 49.9915L16.0819 51.1125C17.3851 53.0381 19.4598 53.928 22.0701 53.928V51.928ZM17.7421 49.9973C16.8354 48.6372 16.3261 46.6731 16.3261 44H14.3261C14.3261 46.8949 14.8728 49.2988 16.078 51.1067L17.7421 49.9973ZM25.7821 44C25.7821 42.3354 25.6043 40.9436 25.1802 39.9027L23.328 40.6573C23.6079 41.3444 23.7821 42.4326 23.7821 44H25.7821ZM25.1826 39.9086C24.9355 39.291 24.5326 38.7795 23.9614 38.4342C23.4013 38.0957 22.7512 37.96 22.0701 37.96V39.96C22.493 39.96 22.7589 40.0443 22.9268 40.1458C23.0835 40.2405 23.2207 40.389 23.3256 40.6514L25.1826 39.9086ZM22.0701 37.96C21.389 37.96 20.7389 38.0957 20.1788 38.4342C19.6075 38.7795 19.2047 39.291 18.9576 39.9086L20.8146 40.6514C20.9195 40.389 21.0566 40.2405 21.2134 40.1458C21.3813 40.0443 21.6472 39.96 22.0701 39.96V37.96ZM18.96 39.9027C18.5359 40.9436 18.3581 42.3354 18.3581 44H20.3581C20.3581 42.4326 20.5323 41.3444 20.8122 40.6573L18.96 39.9027ZM18.3581 44C18.3581 45.1213 18.4236 46.0887 18.5655 46.887L20.5347 46.537C20.4206 45.8953 20.3581 45.0547 20.3581 44H18.3581ZM18.5662 46.8909C18.7192 47.7323 19.0372 48.4822 19.5588 49.0908L21.0774 47.7892C20.831 47.5018 20.637 47.0997 20.534 46.5331L18.5662 46.8909ZM19.5843 49.1194C20.2268 49.8133 21.1129 50.088 22.0701 50.088V48.088C21.4913 48.088 21.2094 47.9307 21.0519 47.7606L19.5843 49.1194ZM22.0701 50.088C23.0247 50.088 23.9146 49.8141 24.5455 49.1044L23.0507 47.7756C22.9136 47.9299 22.6514 48.088 22.0701 48.088V50.088ZM24.544 49.106C25.0884 48.4963 25.4194 47.7411 25.574 46.8909L23.6062 46.5331C23.5048 47.0909 23.3078 47.4877 23.0522 47.774L24.544 49.106ZM25.5747 46.887C25.7166 46.0887 25.7821 45.1213 25.7821 44H23.7821C23.7821 45.0547 23.7196 45.8953 23.6055 46.537L25.5747 46.887ZM31.7503 36.896L31.0669 36.1659L31.0591 36.1734L31.7503 36.896ZM37.5343 36.896L36.8431 37.6186L36.8431 37.6186L37.5343 36.896ZM37.5343 42.896L36.8431 42.1734L36.8431 42.1734L37.5343 42.896ZM31.7503 42.896L31.0591 43.6187L31.0669 43.626L31.7503 42.896ZM46.9423 36.104L47.8197 36.5838L48.629 35.104H46.9423V36.104ZM37.7023 53V54H38.2952L38.5797 53.4798L37.7023 53ZM33.7423 53L32.865 52.5202L32.0557 54H33.7423V53ZM42.9823 36.104V35.104H42.3895L42.105 35.6242L42.9823 36.104ZM35.4943 41.12L34.7 40.5125L34.7 40.5125L35.4943 41.12ZM43.1743 46.208L42.4831 45.4854L42.4831 45.4854L43.1743 46.208ZM48.9343 46.208L49.6256 45.4854L49.6256 45.4854L48.9343 46.208ZM48.9343 52.208L49.6256 52.9306L49.6256 52.9306L48.9343 52.208ZM43.1743 52.208L42.4831 52.9306L42.4831 52.9306L43.1743 52.208ZM45.1663 47.96L44.372 47.3525L44.3604 47.3677L44.3494 47.3833L45.1663 47.96ZM46.8943 50.432L46.1 49.8245L46.1 49.8246L46.8943 50.432ZM46.8943 47.984L46.0837 48.5695L46.0917 48.5806L46.1 48.5915L46.8943 47.984ZM31.6463 39.896C31.6463 38.7943 31.9532 38.0858 32.4416 37.6186L31.0591 36.1734C30.0755 37.1142 29.6463 38.4057 29.6463 39.896H31.6463ZM32.4338 37.626C32.9728 37.1214 33.6834 36.84 34.6543 36.84V34.84C33.2572 34.84 32.0319 35.2626 31.0669 36.166L32.4338 37.626ZM34.6543 36.84C35.6257 36.84 36.3233 37.1215 36.8431 37.6186L38.2256 36.1734C37.2734 35.2625 36.0509 34.84 34.6543 34.84V36.84ZM36.8431 37.6186C37.3315 38.0858 37.6383 38.7943 37.6383 39.896H39.6383C39.6383 38.4057 39.2092 37.1142 38.2256 36.1734L36.8431 37.6186ZM37.6383 39.896C37.6383 40.9977 37.3315 41.7062 36.8431 42.1734L38.2256 43.6186C39.2092 42.6778 39.6383 41.3863 39.6383 39.896H37.6383ZM36.8431 42.1734C36.3233 42.6705 35.6257 42.952 34.6543 42.952V44.952C36.0509 44.952 37.2734 44.5295 38.2256 43.6186L36.8431 42.1734ZM34.6543 42.952C33.6834 42.952 32.9728 42.6706 32.4338 42.166L31.0669 43.626C32.0319 44.5294 33.2572 44.952 34.6543 44.952V42.952ZM32.4416 42.1734C31.9532 41.7062 31.6463 40.9977 31.6463 39.896H29.6463C29.6463 41.3863 30.0755 42.6778 31.0591 43.6186L32.4416 42.1734ZM46.065 35.6242L36.825 52.5202L38.5797 53.4798L47.8197 36.5838L46.065 35.6242ZM37.7023 52H33.7423V54H37.7023V52ZM34.6197 53.4798L43.8597 36.5838L42.105 35.6242L32.865 52.5202L34.6197 53.4798ZM42.9823 37.104H46.9423V35.104H42.9823V37.104ZM34.6303 37.24C33.9728 37.24 33.3532 37.4968 32.9454 38.0829C32.5836 38.6031 32.4783 39.2589 32.4783 39.896H34.4783C34.4783 39.4291 34.5651 39.2569 34.5872 39.2251C34.5899 39.2213 34.5788 39.2356 34.5585 39.2453C34.543 39.2527 34.5581 39.24 34.6303 39.24V37.24ZM32.4783 39.896C32.4783 40.5272 32.5842 41.1794 32.9494 41.6967C33.3596 42.2778 33.9788 42.528 34.6303 42.528V40.528C34.5561 40.528 34.5392 40.5151 34.5534 40.5218C34.5726 40.5309 34.5845 40.545 34.5833 40.5433C34.5645 40.5166 34.4783 40.3528 34.4783 39.896H32.4783ZM34.6303 42.528C35.2829 42.528 35.8757 42.2675 36.2887 41.7274L34.7 40.5125C34.6915 40.5237 34.6871 40.527 34.6881 40.5262C34.6893 40.5252 34.6921 40.5233 34.6953 40.5218C34.6984 40.5203 34.697 40.5215 34.6883 40.5233C34.6793 40.5252 34.6608 40.528 34.6303 40.528V42.528ZM36.2887 41.7274C36.6883 41.2049 36.8063 40.5392 36.8063 39.896H34.8063C34.8063 40.3408 34.7164 40.4911 34.7 40.5125L36.2887 41.7274ZM36.8063 39.896C36.8063 39.256 36.6982 38.5967 36.3277 38.075C35.9125 37.4904 35.2875 37.24 34.6303 37.24V39.24C34.7094 39.24 34.7305 39.2537 34.7199 39.2487C34.7041 39.2413 34.6945 39.2294 34.697 39.233C34.7185 39.2632 34.8063 39.432 34.8063 39.896H36.8063ZM43.0703 49.208C43.0703 48.1063 43.3772 47.3978 43.8656 46.9306L42.4831 45.4854C41.4995 46.4262 41.0703 47.7177 41.0703 49.208H43.0703ZM43.8656 46.9306C44.3854 46.4335 45.0829 46.152 46.0543 46.152V44.152C44.6577 44.152 43.4353 44.5745 42.4831 45.4854L43.8656 46.9306ZM46.0543 46.152C47.0257 46.152 47.7233 46.4335 48.2431 46.9306L49.6256 45.4854C48.6734 44.5745 47.4509 44.152 46.0543 44.152V46.152ZM48.2431 46.9306C48.7315 47.3978 49.0383 48.1063 49.0383 49.208H51.0383C51.0383 47.7177 50.6092 46.4262 49.6256 45.4854L48.2431 46.9306ZM49.0383 49.208C49.0383 50.3097 48.7315 51.0182 48.2431 51.4854L49.6256 52.9306C50.6092 51.9898 51.0383 50.6983 51.0383 49.208H49.0383ZM48.2431 51.4854C47.7233 51.9825 47.0257 52.264 46.0543 52.264V54.264C47.4509 54.264 48.6734 53.8415 49.6256 52.9306L48.2431 51.4854ZM46.0543 52.264C45.0829 52.264 44.3854 51.9825 43.8656 51.4854L42.4831 52.9306C43.4353 53.8415 44.6577 54.264 46.0543 54.264V52.264ZM43.8656 51.4854C43.3772 51.0182 43.0703 50.3097 43.0703 49.208H41.0703C41.0703 50.6983 41.4995 51.9898 42.4831 52.9306L43.8656 51.4854ZM46.0303 46.552C45.3778 46.552 44.785 46.8125 44.372 47.3525L45.9607 48.5675C45.9692 48.5563 45.9736 48.553 45.9726 48.5538C45.9714 48.5548 45.9686 48.5567 45.9654 48.5582C45.9623 48.5597 45.9637 48.5585 45.9723 48.5567C45.9814 48.5548 45.9999 48.552 46.0303 48.552V46.552ZM44.3494 47.3833C43.9816 47.9043 43.8783 48.5683 43.8783 49.208H45.8783C45.8783 48.7277 45.9671 48.5597 45.9833 48.5367L44.3494 47.3833ZM43.8783 49.208C43.8783 49.8392 43.9842 50.4914 44.3494 51.0087C44.7596 51.5898 45.3788 51.84 46.0303 51.84V49.84C45.9561 49.84 45.9392 49.8271 45.9534 49.8338C45.9726 49.8429 45.9845 49.857 45.9833 49.8553C45.9645 49.8286 45.8783 49.6648 45.8783 49.208H43.8783ZM46.0303 51.84C46.6829 51.84 47.2757 51.5795 47.6887 51.0394L46.1 49.8246C46.0915 49.8357 46.0871 49.839 46.0881 49.8382C46.0893 49.8372 46.0921 49.8353 46.0953 49.8338C46.0984 49.8323 46.097 49.8335 46.0883 49.8353C46.0793 49.8372 46.0608 49.84 46.0303 49.84V51.84ZM47.6887 51.0395C48.0883 50.5169 48.2063 49.8512 48.2063 49.208H46.2063C46.2063 49.6528 46.1164 49.8031 46.1 49.8245L47.6887 51.0395ZM48.2063 49.208C48.2063 48.5648 48.0883 47.8991 47.6887 47.3765L46.1 48.5915C46.1164 48.6129 46.2063 48.7632 46.2063 49.208H48.2063ZM47.705 47.3985C47.3012 46.8394 46.7058 46.552 46.0303 46.552V48.552C46.0571 48.552 46.0717 48.5546 46.0769 48.5557C46.0817 48.5568 46.0801 48.5569 46.0751 48.5544C46.0729 48.5533 46.0708 48.5521 46.069 48.5509C46.0673 48.5497 46.0664 48.549 46.0666 48.5491C46.0666 48.5491 46.0728 48.5545 46.0837 48.5695L47.705 47.3985ZM60.9591 52.064L60.4698 52.9362L60.4743 52.9387L60.9591 52.064ZM57.8151 48.992L56.9494 49.4926L56.953 49.4988L56.9567 49.505L57.8151 48.992ZM57.8151 40.088L56.9566 39.575L56.9521 39.5828L57.8151 40.088ZM60.9591 37.016L60.4743 36.1413L60.4698 36.1439L60.9591 37.016ZM69.6711 37.016L69.1818 37.8882L69.1863 37.8907L69.6711 37.016ZM72.7911 40.088L71.9235 40.5853L71.9281 40.5932L72.7911 40.088ZM72.7911 48.992L73.6541 49.4972L73.6568 49.4926L72.7911 48.992ZM69.6711 52.064L70.1603 52.9361L70.1603 52.9361L69.6711 52.064ZM68.5431 48.08L67.8037 47.4066L67.7972 47.414L68.5431 48.08ZM68.5431 40.976L67.7972 41.642L67.8034 41.649L67.8098 41.6559L68.5431 40.976ZM62.0631 40.952L61.3298 40.272L61.3232 40.2793L62.0631 40.952ZM62.0631 48.104L61.3172 48.77L61.3234 48.777L61.3298 48.7839L62.0631 48.104ZM65.3271 52.168C63.9051 52.168 62.617 51.8395 61.4438 51.1893L60.4743 52.9387C61.9572 53.7605 63.5811 54.168 65.3271 54.168V52.168ZM61.4483 51.1919C60.2912 50.5427 59.3694 49.6436 58.6735 48.479L56.9567 49.505C57.8288 50.9644 59.003 52.1133 60.4698 52.9361L61.4483 51.1919ZM58.6808 48.4914C58.0073 47.3268 57.6631 46.0137 57.6631 44.528H55.6631C55.6631 46.3383 56.0869 48.0012 56.9494 49.4926L58.6808 48.4914ZM57.6631 44.528C57.6631 43.0422 58.0073 41.7392 58.6781 40.5932L56.9521 39.5828C56.0869 41.0608 55.6631 42.7178 55.6631 44.528H57.6631ZM58.6735 40.601C59.3694 39.4364 60.2912 38.5373 61.4483 37.8881L60.4698 36.1439C59.003 36.9667 57.8288 38.1156 56.9567 39.575L58.6735 40.601ZM61.4438 37.8907C62.617 37.2405 63.9051 36.912 65.3271 36.912V34.912C63.5811 34.912 61.9572 35.3195 60.4743 36.1413L61.4438 37.8907ZM65.3271 36.912C66.7492 36.912 68.0273 37.2405 69.1818 37.8881L70.1603 36.1439C68.6909 35.3195 67.073 34.912 65.3271 34.912V36.912ZM69.1863 37.8907C70.3554 38.5385 71.2627 39.4323 71.9235 40.5853L73.6587 39.5907C72.8155 38.1197 71.6428 36.9655 70.1558 36.1413L69.1863 37.8907ZM71.9281 40.5932C72.5989 41.7392 72.9431 43.0422 72.9431 44.528H74.9431C74.9431 42.7178 74.5193 41.0608 73.6541 39.5828L71.9281 40.5932ZM72.9431 44.528C72.9431 46.0137 72.5989 47.3268 71.9254 48.4914L73.6568 49.4926C74.5193 48.0012 74.9431 46.3383 74.9431 44.528H72.9431ZM71.9281 48.4868C71.2489 49.6472 70.3371 50.5438 69.1818 51.1919L70.1603 52.9361C71.629 52.1122 72.7973 50.9608 73.6541 49.4972L71.9281 48.4868ZM69.1818 51.1919C68.0273 51.8395 66.7492 52.168 65.3271 52.168V54.168C67.073 54.168 68.6909 53.7605 70.1603 52.9361L69.1818 51.1919ZM65.3271 50.424C66.9182 50.424 68.2756 49.8811 69.289 48.746L67.7972 47.414C67.2106 48.0709 66.424 48.424 65.3271 48.424V50.424ZM69.2824 48.7533C70.3005 47.6355 70.7671 46.1929 70.7671 44.528H68.7671C68.7671 45.8071 68.4177 46.7325 67.8038 47.4067L69.2824 48.7533ZM70.7671 44.528C70.7671 42.8512 70.3025 41.4027 69.2764 40.2961L67.8098 41.6559C68.4157 42.3093 68.7671 43.2288 68.7671 44.528H70.7671ZM69.289 40.31C68.2756 39.1749 66.9182 38.632 65.3271 38.632V40.632C66.424 40.632 67.2106 40.9851 67.7972 41.642L69.289 40.31ZM65.3271 38.632C63.7297 38.632 62.3612 39.1598 61.3298 40.2721L62.7964 41.6319C63.397 40.9842 64.2045 40.632 65.3271 40.632V38.632ZM61.3232 40.2793C60.315 41.3883 59.8631 42.8435 59.8631 44.528H61.8631C61.8631 43.2045 62.2112 42.2757 62.803 41.6247L61.3232 40.2793ZM59.8631 44.528C59.8631 46.2006 60.317 47.6498 61.3172 48.77L62.809 47.438C62.2092 46.7662 61.8631 45.8314 61.8631 44.528H59.8631ZM61.3298 48.7839C62.3612 49.8962 63.7297 50.424 65.3271 50.424V48.424C64.2045 48.424 63.397 48.0718 62.7964 47.4241L61.3298 48.7839ZM82.9463 43.016V44.016H83.9463V43.016H82.9463ZM80.7383 43.016V42.016H79.7383V43.016H80.7383ZM80.7383 53V54H81.7383V53H80.7383ZM76.6343 53H75.6343V54H76.6343V53ZM76.6343 43.016H77.6343V42.016H76.6343V43.016ZM75.1463 43.016H74.1463V44.016H75.1463V43.016ZM75.1463 39.608V38.608H74.1463V39.608H75.1463ZM76.6343 39.608V40.608H77.6343V39.608H76.6343ZM78.0503 35.48L78.7186 36.224L78.7254 36.2177L78.0503 35.48ZM82.8743 34.208H83.8743V33.313L82.9847 33.2141L82.8743 34.208ZM82.8743 37.688L82.8132 38.6861L83.8743 38.7511V37.688H82.8743ZM81.2183 38.024L81.8659 38.7859L81.8659 38.7859L81.2183 38.024ZM80.7383 39.608H79.7383V40.608H80.7383V39.608ZM82.9463 39.608H83.9463V38.608H82.9463V39.608ZM82.9463 42.016H80.7383V44.016H82.9463V42.016ZM79.7383 43.016V53H81.7383V43.016H79.7383ZM80.7383 52H76.6343V54H80.7383V52ZM77.6343 53V43.016H75.6343V53H77.6343ZM76.6343 42.016H75.1463V44.016H76.6343V42.016ZM76.1463 43.016V39.608H74.1463V43.016H76.1463ZM75.1463 40.608H76.6343V38.608H75.1463V40.608ZM77.6343 39.608V39.224H75.6343V39.608H77.6343ZM77.6343 39.224C77.6343 37.7699 78.0444 36.8295 78.7185 36.2239L77.382 34.7361C76.1681 35.8265 75.6343 37.3821 75.6343 39.224H77.6343ZM78.7254 36.2177C79.4196 35.5823 80.5224 35.184 82.2023 35.184V33.184C80.2341 33.184 78.5689 33.6497 77.3751 34.7423L78.7254 36.2177ZM82.2023 35.184C82.5002 35.184 82.678 35.1923 82.7639 35.2019L82.9847 33.2141C82.7826 33.1917 82.5123 33.184 82.2023 33.184V35.184ZM81.8743 34.208V37.688H83.8743V34.208H81.8743ZM82.9354 36.6899C82.0936 36.6383 81.2002 36.7269 80.5706 37.2621L81.8659 38.7859C81.8607 38.7904 81.9064 38.7494 82.0711 38.716C82.2355 38.6827 82.4768 38.6655 82.8132 38.6861L82.9354 36.6899ZM80.5706 37.2621C79.9136 37.8206 79.7383 38.6826 79.7383 39.488H81.7383C81.7383 39.2055 81.7712 39.0194 81.8085 38.9056C81.8439 38.7977 81.8747 38.7785 81.8659 38.7859L80.5706 37.2621ZM79.7383 39.488V39.608H81.7383V39.488H79.7383ZM80.7383 40.608H82.9463V38.608H80.7383V40.608ZM81.9463 39.608V43.016H83.9463V39.608H81.9463ZM91.5947 43.016V44.016H92.5947V43.016H91.5947ZM89.3867 43.016V42.016H88.3867V43.016H89.3867ZM89.3867 53V54H90.3867V53H89.3867ZM85.2827 53H84.2827V54H85.2827V53ZM85.2827 43.016H86.2827V42.016H85.2827V43.016ZM83.7947 43.016H82.7947V44.016H83.7947V43.016ZM83.7947 39.608V38.608H82.7947V39.608H83.7947ZM85.2827 39.608V40.608H86.2827V39.608H85.2827ZM86.6987 35.48L87.367 36.224L87.3739 36.2177L86.6987 35.48ZM91.5227 34.208H92.5227V33.313L91.6331 33.2141L91.5227 34.208ZM91.5227 37.688L91.4616 38.6861L92.5227 38.7511V37.688H91.5227ZM89.8667 38.024L90.5144 38.7859L90.5144 38.7859L89.8667 38.024ZM89.3867 39.608H88.3867V40.608H89.3867V39.608ZM91.5947 39.608H92.5947V38.608H91.5947V39.608ZM91.5947 42.016H89.3867V44.016H91.5947V42.016ZM88.3867 43.016V53H90.3867V43.016H88.3867ZM89.3867 52H85.2827V54H89.3867V52ZM86.2827 53V43.016H84.2827V53H86.2827ZM85.2827 42.016H83.7947V44.016H85.2827V42.016ZM84.7947 43.016V39.608H82.7947V43.016H84.7947ZM83.7947 40.608H85.2827V38.608H83.7947V40.608ZM86.2827 39.608V39.224H84.2827V39.608H86.2827ZM86.2827 39.224C86.2827 37.7699 86.6929 36.8295 87.367 36.2239L86.0305 34.7361C84.8166 35.8265 84.2827 37.3821 84.2827 39.224H86.2827ZM87.3739 36.2177C88.0681 35.5823 89.1709 35.184 90.8507 35.184V33.184C88.8826 33.184 87.2174 33.6497 86.0236 34.7423L87.3739 36.2177ZM90.8507 35.184C91.1487 35.184 91.3264 35.1923 91.4123 35.2019L91.6331 33.2141C91.431 33.1917 91.1608 33.184 90.8507 33.184V35.184ZM90.5227 34.208V37.688H92.5227V34.208H90.5227ZM91.5838 36.6899C90.7421 36.6383 89.8486 36.7269 89.2191 37.2621L90.5144 38.7859C90.5091 38.7904 90.5549 38.7494 90.7196 38.716C90.8839 38.6827 91.1252 38.6655 91.4616 38.6861L91.5838 36.6899ZM89.2191 37.2621C88.562 37.8206 88.3867 38.6826 88.3867 39.488H90.3867C90.3867 39.2055 90.4196 39.0194 90.4569 38.9056C90.4923 38.7977 90.5231 38.7785 90.5144 38.7859L89.2191 37.2621ZM88.3867 39.488V39.608H90.3867V39.488H88.3867ZM89.3867 40.608H91.5947V38.608H89.3867V40.608ZM90.5947 39.608V43.016H92.5947V39.608H90.5947Z" fill="black" mask="url(#path-1-outside-1_1_27)"/>
</svg>
